<svg width="83" height="82" viewBox="0 0 83 82" fill="none" xmlns="http://www.w3.org/2000/svg">
<path d="M15.8955 74.0532V81.4777H0.5V49.6866H15.8955V53.0123V54.0123L16.6955 53.4123C17.7777 52.6006 19.1277 51.6558 20.7464 50.7116L20.9944 50.5669V50.2797V14.163H38.2563H38.7563V13.663V8.69777H47.8203H48.3203V8.19777V0.5H50.0529V8.19777V8.69777H50.5529H59.617V24.5933V25.0933H60.117H78.7451V62.713V62.9201L78.8916 63.0665C78.9219 63.0969 78.9584 63.1335 78.9918 63.1636C79.0263 63.1946 79.0822 63.2417 79.1581 63.2797C79.2391 63.3202 79.3216 63.3376 79.3877 63.345C80.2832 63.8264 80.8492 64.6325 81.0828 65.5668L81.0826 65.5668L81.0854 65.5771L81.4926 67.0697C81.4931 67.0714 81.4935 67.0731 81.4939 67.0748C81.7209 67.9915 81.3617 68.9674 80.6392 69.3821C80.6383 69.3826 80.6375 69.3831 80.6366 69.3836L73.2639 73.4795L73.2526 73.4857L73.2417 73.4926C72.217 74.133 71.0508 74.5261 69.722 74.7921C69.7212 74.7923 69.7204 74.7924 69.7196 74.7926L59.0662 76.8413L59.0246 76.8493L58.985 76.8642C57.9673 77.2458 56.8026 77.3788 55.7448 77.3788H43.7214C42.8918 77.3788 41.9789 77.3776 41.2077 77.249L41.2077 77.2489L41.1993 77.2477L16.4693 73.5587L15.8955 73.4731V74.0532ZM77.0125 27.3259V26.8259H76.5125H60.117H59.617V27.3259V65.3089V65.8089H60.117H60.1417C60.8049 65.8089 61.6583 65.809 62.3871 65.6653L64.2866 65.394L64.7159 65.3327V64.899V57.8844H71.9136V63.5327V64.1512L72.5184 64.0216L76.292 63.213H76.2926H76.2932H76.2938H76.2943H76.2949H76.2955H76.2961H76.2967H76.2973H76.2979H76.2984H76.299H76.2996H76.3001H76.3007H76.3013H76.3018H76.3024H76.303H76.3035H76.3041H76.3046H76.3052H76.3057H76.3063H76.3068H76.3074H76.3079H76.3084H76.309H76.3095H76.3101H76.3106H76.3111H76.3117H76.3122H76.3127H76.3132H76.3138H76.3143H76.3148H76.3153H76.3158H76.3163H76.3169H76.3174H76.3179H76.3184H76.3189H76.3194H76.3199H76.3204H76.3209H76.3214H76.3219H76.3224H76.3229H76.3234H76.3239H76.3243H76.3248H76.3253H76.3258H76.3263H76.3268H76.3273H76.3277H76.3282H76.3287H76.3292H76.3296H76.3301H76.3306H76.331H76.3315H76.332H76.3325H76.3329H76.3334H76.3338H76.3343H76.3348H76.3352H76.3357H76.3361H76.3366H76.337H76.3375H76.3379H76.3384H76.3388H76.3393H76.3397H76.3402H76.3406H76.3411H76.3415H76.342H76.3424H76.3428H76.3433H76.3437H76.3441H76.3446H76.345H76.3455H76.3459H76.3463H76.3468H76.3472H76.3476H76.348H76.3485H76.3489H76.3493H76.3497H76.3502H76.3506H76.351H76.3514H76.3519H76.3523H76.3527H76.3531H76.3535H76.354H76.3544H76.3548H76.3552H76.3556H76.356H76.3565H76.3569H76.3573H76.3577H76.3581H76.3585H76.3589H76.3594H76.3598H76.3602H76.3606H76.361H76.3614H76.3618H76.3622H76.3626H76.363H76.3634H76.3638H76.3642H76.3646H76.3651H76.3655H76.3659H76.3663H76.3667H76.3671H76.3675H76.3679H76.3683H76.3687H76.3691H76.3695H76.3699H76.3703H76.3707H76.3711H76.3715H76.3719H76.3723H76.3727H76.3731H76.3735H76.3739H76.3743H76.3747H76.3751H76.3755H76.3759H76.3763H76.3767H76.3771H76.3775H76.3779H76.3783H76.3787H76.3791H76.3795H76.3799H76.3803H76.3807H76.3811H76.3815H76.3819H76.3823H76.3827H76.3831H76.3835H76.3839H76.3843H76.3847H76.3851H76.3855H76.3859H76.3863H76.3867H76.3872H76.3876H76.388H76.3884H76.3888H76.3892H76.3896H76.39H76.3904H76.3908H76.3912H76.3916H76.392H76.3925H76.3929H76.3933H76.3937H76.3941H76.3945H76.3949H76.3953H76.3958H76.3962H76.3966H76.397H76.3974H76.3978H76.3983H76.3987H76.3991H76.3995H76.3999H76.4004H76.4008H76.4012H76.4016H76.4021H76.4025H76.4029H76.4033H76.4038H76.4042H76.4046H76.4051H76.4055H76.4059H76.4063H76.4068H76.4072H76.4077H76.4081H76.4085H76.409H76.4094H76.4099H76.4103H76.4107H76.4112H76.4116H76.4121H76.4125H76.413H76.4134H76.4139H76.4143H76.4148H76.4152H76.4157H76.4161H76.4166H76.417H76.4175H76.418H76.4184H76.4189H76.4194H76.4198H76.4203H76.4208H76.4212H76.4217H76.4222H76.4226H76.4231H76.4236H76.4241H76.4246H76.425H76.4255H76.426H76.4265H76.427H76.4275H76.4279H76.4284H76.4289H76.4294H76.4299H76.4304H76.4309H76.4314H76.4319H76.4324H76.4329H76.4334H76.4339H76.4344H76.435H76.4355H76.436H76.4365H76.437H76.4375H76.438H76.4386H76.4391H76.4396H76.4401H76.4407H76.4412H76.4417H76.4423H76.4428H76.4434H76.4439H76.4444H76.445H76.4455H76.4461H76.4466H76.4472H76.4477H76.4483H76.4488H76.4494H76.45H76.4505H76.4511H76.4517H76.4522H76.4528H76.4534H76.454H76.4545H76.4551H76.4557H76.4563H76.4569H76.4575H76.458H76.4586H76.4592H76.4598H76.4604H76.461H76.4616H76.4622H76.4628H76.4635H76.4641H76.4647H76.4653H76.4659H76.4665H76.4672H76.4678H76.4684H76.4691H76.4697H76.4703H76.471H76.4716H76.4722H76.4729H76.4735H76.4742H76.4748H76.4755H76.4762H76.4768H76.4775H76.4781H76.4788H76.4795H76.4802H76.4808H76.4815H76.4822H76.4829H76.4836H76.4843H76.4849H76.4856H76.4863H76.487H76.4877H76.4884H76.4892H76.4899H76.4906H76.4913H76.492H76.4927H76.4935H76.4942H76.4949H76.4957H76.4964H76.4971H76.4979H76.4986H76.4994H76.5001H76.5009H76.5016H76.5024H76.5032H76.5039H76.5047H76.5055H76.5062H76.507H76.5078H76.5086H76.5094H76.5101H76.5109H76.5117H76.5125H77.0125V62.713V27.3259ZM69.7552 64.7104L70.1811 64.6465V64.2159V60.117V59.617H69.6811H66.9485H66.4485V60.117V64.6258V65.2064L67.0226 65.1202L69.7552 64.7104ZM40.9889 10.4304H40.4889V10.9304V13.663V14.163H40.9889H41.8552V51.0994V51.5724L42.3274 51.5987L54.6241 52.2818L54.6379 52.2826H54.6518C55.2815 52.2826 55.8324 52.59 56.3108 53.188C56.7494 53.7361 56.8575 54.3782 56.6368 55.0402L56.6286 55.0647L56.623 55.0899L56.3513 56.3129C55.8555 58.2854 54.2508 59.6578 52.237 60.0354L52.2188 60.0389L52.2009 60.0436L45.506 61.8198L45.5161 62.7889L55.6236 65.2475C55.6241 65.2476 55.6245 65.2477 55.625 65.2478C55.9273 65.3233 56.2254 65.3605 56.4908 65.3937L56.5026 65.3952C56.7804 65.4299 57.0239 65.4609 57.2631 65.5207L57.8844 65.6761V65.0357V24.5933V10.9304V10.4304H57.3844H40.9889ZM23.227 15.8955H22.727V16.3955V48.9134V49.5762L23.3644 49.3941C23.7306 49.2895 24.0845 49.1633 24.4151 49.0454C24.5321 49.0037 24.6462 48.963 24.7569 48.9247C25.1923 48.774 25.6003 48.65 26.0303 48.5886L26.4596 48.5272V48.0936V46.954H36.39V48.6866H35.1138L34.9281 49.6509C35.5813 49.9121 36.102 50.1719 36.7595 50.5659C37.6565 51.1609 38.7044 51.4628 39.6226 51.4628H40.1226V50.9628V16.3955V15.8955H39.6226H23.227ZM13.663 79.7451H14.163V79.2451V51.9192V51.4192H13.663H2.73259H2.23259V51.9192V79.2451V79.7451H2.73259H13.663ZM36.9554 62.4157L52.0183 58.2856C53.2957 58.1103 54.4055 57.1519 54.727 55.8661L54.7272 55.8662L54.73 55.8533L55.0033 54.6237L55.1323 54.043L54.5381 54.0157L39.6591 53.3332C38.3643 53.202 37.0717 52.8131 35.9102 52.1692C33.7713 50.8882 30.9498 50.1896 28.1457 50.1896C25.7466 50.1896 23.0849 51.4144 20.8832 52.7561C18.6642 54.1083 16.8285 55.6319 16.0592 56.3313L15.8955 56.4801V56.7013V71.184V71.616L16.323 71.6787L41.407 75.3595C42.1672 75.6465 43.04 75.6464 43.6825 75.6462H43.7214H55.7448C56.7369 75.6462 57.7228 75.5054 58.6678 75.3704L58.6848 75.368L58.6967 75.3663L58.7085 75.364L69.3541 73.3167C70.3944 73.1658 71.4092 72.7241 72.3875 72.1652C72.3878 72.165 72.3881 72.1648 72.3885 72.1646L79.6281 68.0667L79.9664 67.8752L79.8641 67.5001L79.4542 65.9971L79.4506 65.9837L79.4462 65.9706C79.2666 65.4319 78.9013 65.0562 78.5123 64.8617L78.4805 64.8458L78.4468 64.8346C78.0074 64.6881 77.5059 64.6511 77.0924 64.8089H77.0591H76.9999L76.9424 64.8227L70.1369 66.456L62.7944 67.4079C62.7929 67.4081 62.7914 67.4083 62.7899 67.4084C60.3886 67.6747 57.8518 67.5414 55.4495 67.0082L36.9554 62.4157Z" fill="#034737" stroke="#034737"/>
<path d="M4.59961 57.3843C4.59961 55.3377 6.15194 53.7854 8.1985 53.7854C10.2451 53.7854 11.7974 55.3377 11.7974 57.3843C11.7974 59.4308 10.2451 60.9832 8.1985 60.9832C6.15194 60.9832 4.59961 59.4308 4.59961 57.3843ZM6.3322 57.3843C6.3322 57.9078 6.50889 58.3829 6.85438 58.7284C7.19987 59.0739 7.67498 59.2506 8.1985 59.2506C8.72201 59.2506 9.19712 59.0739 9.54261 58.7284C9.8881 58.3829 10.0648 57.9078 10.0648 57.3843C10.0648 56.8608 9.8881 56.3857 9.54261 56.0402C9.19712 55.6947 8.72201 55.518 8.1985 55.518C7.67498 55.518 7.19987 55.6947 6.85438 56.0402C6.50889 56.3857 6.3322 56.8608 6.3322 57.3843Z" fill="#034737" stroke="#034737"/>
<path d="M26.459 21.3608V19.6282H36.3893V21.3608H26.459Z" fill="#034737" stroke="#034737"/>
<path d="M26.459 26.8259V25.0933H36.3893V26.8259H26.459Z" fill="#034737" stroke="#034737"/>
<path d="M26.459 32.2912V30.5586H36.3893V32.2912H26.459Z" fill="#034737" stroke="#034737"/>
<path d="M26.459 37.7563V36.0237H36.3893V37.7563H26.459Z" fill="#034737" stroke="#034737"/>
<path d="M26.459 43.2214V41.4888H36.3893V43.2214H26.459Z" fill="#034737" stroke="#034737"/>
<path d="M44.2207 15.8954V14.1628H47.3196V15.8954H44.2207Z" fill="#034737" stroke="#034737"/>
<path d="M51.0527 15.8954V14.1628H54.1516V15.8954H51.0527Z" fill="#034737" stroke="#034737"/>
<path d="M44.2207 21.3608V19.6282H47.3196V21.3608H44.2207Z" fill="#034737" stroke="#034737"/>
<path d="M51.0527 21.3608V19.6282H54.1516V21.3608H51.0527Z" fill="#034737" stroke="#034737"/>
<path d="M44.2207 26.8259V25.0933H47.3196V26.8259H44.2207Z" fill="#034737" stroke="#034737"/>
<path d="M51.0527 26.8259V25.0933H54.1516V26.8259H51.0527Z" fill="#034737" stroke="#034737"/>
<path d="M44.2207 32.2912V30.5586H47.3196V32.2912H44.2207Z" fill="#034737" stroke="#034737"/>
<path d="M51.0527 32.2912V30.5586H54.1516V32.2912H51.0527Z" fill="#034737" stroke="#034737"/>
<path d="M44.2207 37.7563V36.0237H47.3196V37.7563H44.2207Z" fill="#034737" stroke="#034737"/>
<path d="M51.0527 37.7563V36.0237H54.1516V37.7563H51.0527Z" fill="#034737" stroke="#034737"/>
<path d="M44.2207 43.2214V41.4888H47.3196V43.2214H44.2207Z" fill="#034737" stroke="#034737"/>
<path d="M51.0527 43.2214V41.4888H54.1516V43.2214H51.0527Z" fill="#034737" stroke="#034737"/>
<path d="M44.2207 48.6867V46.9541H47.3196V48.6867H44.2207Z" fill="#034737" stroke="#034737"/>
<path d="M51.0527 48.6867V46.9541H54.1516V48.6867H51.0527Z" fill="#034737" stroke="#034737"/>
<path d="M63.3496 32.2912V30.5586H66.4485V32.2912H63.3496Z" fill="#034737" stroke="#034737"/>
<path d="M70.1816 32.2912V30.5586H73.2805V32.2912H70.1816Z" fill="#034737" stroke="#034737"/>
<path d="M63.3496 37.7563V36.0237H66.4485V37.7563H63.3496Z" fill="#034737" stroke="#034737"/>
<path d="M70.1816 37.7563V36.0237H73.2805V37.7563H70.1816Z" fill="#034737" stroke="#034737"/>
<path d="M63.3496 43.2214V41.4888H66.4485V43.2214H63.3496Z" fill="#034737" stroke="#034737"/>
<path d="M70.1816 43.2214V41.4888H73.2805V43.2214H70.1816Z" fill="#034737" stroke="#034737"/>
<path d="M63.3496 48.6867V46.9541H66.4485V48.6867H63.3496Z" fill="#034737" stroke="#034737"/>
<path d="M70.1816 48.6867V46.9541H73.2805V48.6867H70.1816Z" fill="#034737" stroke="#034737"/>
<path d="M63.3496 54.1518V52.4192H66.4485V54.1518H63.3496Z" fill="#034737" stroke="#034737"/>
<path d="M70.1816 54.1518V52.4192H73.2805V54.1518H70.1816Z" fill="#034737" stroke="#034737"/>
</svg>
