<svg width="86" height="86" viewBox="0 0 86 86" fill="none" xmlns="http://www.w3.org/2000/svg">
<path d="M72.1924 44.0044V34.9853C72.2039 34.9833 72.2151 34.9813 72.2266 34.9794L72.4195 34.9439C74.7369 34.5358 76.4192 32.5163 76.4192 30.1417V12.4433C76.4192 9.75189 74.2297 7.56174 71.5383 7.56174H51.3715V4.78369C51.3715 2.22479 49.2896 0.143555 46.7301 0.143555H29.6891C27.1302 0.143555 25.0483 2.22479 25.0483 4.78369V7.56174H4.88159C2.19016 7.56174 0 9.75189 0 12.4433V30.1063C0 32.4966 1.69806 34.526 4.047 34.9341L4.20578 34.9603V57.2477C4.20578 61.2396 7.45296 64.4867 11.4448 64.4867H43.6653C44.0131 75.8653 53.3544 85.0209 64.8163 85.0209C76.4973 85.0209 86 75.5182 86 63.8372C86 54.7531 80.2418 47.0088 72.1924 44.0044ZM27.7358 4.78369C27.7358 3.70699 28.6118 2.83105 29.6891 2.83105H46.7301C47.8074 2.83105 48.684 3.70699 48.684 4.78369V7.56174H27.7358V4.78369ZM2.6875 30.1063V12.4433C2.6875 11.2334 3.67169 10.2492 4.88159 10.2492H26.3921H50.0278H71.5383C72.7475 10.2492 73.7317 11.2334 73.7317 12.4433V30.1417C73.7317 31.1922 72.9673 32.1186 71.9438 32.2991C71.7354 32.3295 59.3699 34.7508 44.3529 35.1841C44.1896 35.188 44.0272 35.1946 43.8635 35.1985V32.677C43.8635 30.8982 42.6526 29.4101 41.0142 28.9489C40.924 28.9233 40.8394 28.8846 40.7465 28.8656C40.7134 28.859 40.6776 28.8616 40.6445 28.8557C40.4224 28.8157 40.1967 28.7862 39.9634 28.7862H39.9608H36.4584H36.4558C36.2091 28.7862 35.9696 28.815 35.7357 28.8596C35.7153 28.8629 35.6934 28.8616 35.673 28.8656C35.5418 28.8925 35.4204 28.9436 35.2944 28.983C33.7135 29.4803 32.5564 30.9389 32.5564 32.677V35.1559C16.6812 34.6298 5.77965 32.4546 4.49776 32.2846C3.44926 32.1022 2.6875 31.1863 2.6875 30.1063ZM36.4584 31.4737H39.9608C40.052 31.4737 40.1327 31.5065 40.2183 31.5255C40.7583 31.6462 41.1714 32.1062 41.1714 32.6816V41.292C41.1714 41.6804 40.9758 42.0098 40.6908 42.2309C40.4834 42.3877 40.2357 42.4966 39.9543 42.4966H36.4571C36.1786 42.4966 35.9338 42.3877 35.7291 42.2315C35.4437 42.0104 35.2478 41.6804 35.2478 41.292V32.6816C35.2478 32.1075 35.6589 31.6482 36.1966 31.5262C36.2832 31.5071 36.3656 31.4737 36.4584 31.4737ZM6.89328 57.2477V35.4032C16.4372 36.9282 23.7529 37.493 32.1116 37.8525C32.2589 37.8584 32.4062 37.8598 32.5531 37.8643H32.5564V41.2972C32.5564 42.5648 33.1778 43.6829 34.1236 44.3928C34.7758 44.8849 35.5779 45.1874 36.4558 45.1874H39.9634C40.8407 45.1874 41.6421 44.8849 42.294 44.3941C43.2438 43.6842 43.8681 42.5662 43.8681 41.2972V37.8867C52.016 37.7011 61.183 36.8084 69.5049 35.4452V43.175C69.4367 43.16 69.3672 43.1554 69.2989 43.1409C67.7649 42.8087 66.2005 42.6528 64.8163 42.6528C54.3393 42.6528 45.0609 50.359 43.7923 61.3459C43.7775 61.4705 43.7526 61.5919 43.7401 61.7172C43.7372 61.7448 43.7309 61.7717 43.7283 61.7992H11.4448C8.93515 61.7992 6.89328 59.7574 6.89328 57.2477ZM64.8163 82.3334C54.6174 82.3334 46.32 74.036 46.32 63.8372C46.32 53.5985 54.687 45.3429 64.8208 45.3429C64.8845 45.3429 64.9481 45.3501 65.0118 45.3508C75.2298 45.4586 83.3125 53.8096 83.3125 63.8372C83.3125 74.036 75.0151 82.3334 64.8163 82.3334Z" fill="#034737"/>
<path d="M75.6142 60.3708C75.4181 59.7607 75.1707 59.1675 74.8748 58.5993L75.7566 56.9354C76.1667 56.1585 76.0243 55.2216 75.4017 54.6022L73.9949 53.2033C73.493 52.7033 72.5705 52.3753 71.4918 52.9527L69.9998 53.7525C69.4302 53.4592 68.8358 53.2151 68.2249 53.0235L67.6712 51.2211C67.4133 50.3833 66.6522 49.8203 65.775 49.8203H65.7704L63.7856 49.8256C63.077 49.8282 62.1932 50.2481 61.8382 51.4186L61.3481 53.0419C60.7372 53.2374 60.1447 53.4848 59.5785 53.7807L57.9132 52.8989C57.1364 52.4888 56.2001 52.6312 55.58 53.2532L54.1805 54.6599C53.6799 55.1638 53.3518 56.0863 53.9299 57.1637L54.7297 58.6544C54.4371 59.2239 54.193 59.8184 54.0007 60.4286L52.1997 60.9824C51.3592 61.2409 50.7969 62.0059 50.8008 62.8825L50.8061 64.866C50.808 65.7439 51.3743 66.5043 52.2148 66.7589L54.0185 67.3048C54.2146 67.9137 54.462 68.5068 54.7579 69.0757L53.8761 70.7403C53.466 71.5165 53.6084 72.4541 54.231 73.0735L55.6378 74.4724C56.141 74.9723 57.0635 75.2997 58.1409 74.723L59.6323 73.9232C60.2005 74.2151 60.7943 74.4592 61.4065 74.6521L62.1013 76.9053C62.2752 77.4695 62.7961 77.8534 63.3853 77.8534C63.5206 77.8534 66.4548 77.8456 66.3195 77.8455C66.9107 77.8435 67.431 77.4564 67.6023 76.8895L68.2827 74.6338C68.8929 74.4382 69.486 74.1909 70.0542 73.895L71.7195 74.7768C72.497 75.1875 73.4339 75.0452 74.0527 74.4225L75.4522 73.0157C75.9528 72.5118 76.2809 71.5893 75.7022 70.5107L74.9443 69.0987C75.2862 68.4937 75.4955 67.8441 75.6562 67.2392L77.4324 66.6907C78.2716 66.4335 78.8339 65.6697 78.8319 64.7905L78.8267 62.8077C78.8247 61.9285 78.2578 61.1674 77.416 60.9141L75.6142 60.3708ZM74.4864 64.7866C73.8243 64.9913 73.3106 65.5359 73.1452 66.2097C72.9996 66.7983 72.8191 67.4656 72.5167 67.9203C72.1 68.5436 72.0495 69.3887 72.3907 70.0251L73.1774 71.4916L72.5154 72.1569L70.9721 71.34C70.3757 71.0251 69.6638 71.0356 69.07 71.3715C68.473 71.7087 67.8365 71.9738 67.1771 72.1602C66.5216 72.3458 66.0144 72.8412 65.8222 73.4842L65.3163 75.1606L64.3761 75.1633L63.8623 73.496C63.6635 72.8491 63.1518 72.3544 62.4937 72.172C61.8323 71.9883 61.1958 71.7258 60.6027 71.3938C60.0106 71.062 59.2989 71.0511 58.7039 71.3715L57.1613 72.1976L56.496 71.5355L57.3109 69.9976C57.6285 69.4005 57.618 68.6886 57.2814 68.0922C56.9448 67.4951 56.6791 66.86 56.4934 66.2051C56.3083 65.5477 55.8117 65.0385 55.1654 64.843L53.4922 64.3378L53.4896 63.3969L55.1555 62.8851C55.8031 62.687 56.2985 62.1739 56.4809 61.5151C56.664 60.8577 56.9264 60.2199 57.2604 59.6216C57.5924 59.0271 57.5996 58.3185 57.2814 57.724L56.4553 56.1841L57.1173 55.5181L58.6586 56.3344C59.2563 56.6519 59.9695 56.6401 60.5646 56.3029C61.1578 55.9669 61.7929 55.7018 62.4523 55.5155C63.1058 55.3305 63.6124 54.8358 63.8092 54.1901L64.3164 52.5117L65.2553 52.5091L65.7146 54.0044C66.021 55.0018 66.6561 55.3698 67.1351 55.503L67.1364 55.5037C67.7965 55.6861 68.4342 55.9485 69.0333 56.2832C69.6277 56.6145 70.3364 56.6217 70.9282 56.3042L72.4714 55.4774L73.1367 56.1395L72.3218 57.6781C72.0042 58.2745 72.0147 58.9864 72.3513 59.5835C72.6879 60.1799 72.9536 60.8157 73.1387 61.4692C73.3244 62.1273 73.8211 62.6371 74.4686 62.8326L76.1405 63.3365L76.1431 64.2761L74.4864 64.7866Z" fill="#034737"/>
<path d="M64.8234 58.0752C61.6425 58.0752 59.0547 60.6571 59.0547 63.8307C59.0547 67.011 61.6425 69.5988 64.8234 69.5988C67.9971 69.5988 70.5789 67.011 70.5789 63.8307C70.5789 60.6571 67.9971 58.0752 64.8234 58.0752ZM64.8234 66.9113C63.1246 66.9113 61.7422 65.5295 61.7422 63.8307C61.7422 62.1386 63.1246 60.7627 64.8234 60.7627C66.5149 60.7627 67.8914 62.1386 67.8914 63.8307C67.8914 65.5295 66.5149 66.9113 64.8234 66.9113Z" fill="#034737"/>
</svg>
