<svg width="88" height="88" viewBox="0 0 88 88" fill="none" xmlns="http://www.w3.org/2000/svg">
<path d="M87.48 43.69C87.48 40.82 85.31 38.46 82.53 38.13C81.59 31.61 79.02 25.44 75.05 20.17C76.77 17.98 76.65 14.79 74.63 12.77C72.6 10.75 69.41 10.62 67.22 12.36C61.94 8.4 55.76 5.85 49.23 4.93C48.9 2.16 46.54 0 43.68 0C40.81 0 38.45 2.17 38.12 4.95C31.6 5.89 25.43 8.46 20.16 12.43C19.18 11.66 17.99 11.21 16.72 11.21C15.22 11.21 13.82 11.79 12.76 12.85C11.7 13.91 11.12 15.31 11.12 16.81C11.12 18.09 11.57 19.28 12.35 20.27C8.39 25.55 5.84 31.73 4.93 38.25C2.16 38.58 0 40.94 0 43.8C0 46.67 2.17 49.03 4.95 49.36C5.89 55.88 8.46 62.05 12.43 67.32C11.66 68.3 11.21 69.49 11.21 70.76C11.21 72.25 11.79 73.66 12.85 74.72C13.94 75.81 15.37 76.36 16.81 76.36C18.04 76.36 19.25 75.94 20.26 75.14C25.54 79.1 31.72 81.65 38.25 82.57C38.58 85.34 40.94 87.5 43.8 87.5C46.67 87.5 49.03 85.33 49.36 82.55C55.88 81.61 62.05 79.04 67.32 75.07C68.3 75.84 69.49 76.29 70.76 76.29C72.26 76.29 73.66 75.71 74.72 74.65C75.78 73.59 76.36 72.19 76.36 70.69C76.36 69.41 75.91 68.22 75.13 67.23C79.09 61.95 81.64 55.77 82.55 49.25C85.32 48.92 87.48 46.55 87.48 43.69ZM85.34 43.69C85.34 45.6 83.79 47.15 81.88 47.15C79.97 47.15 78.42 45.6 78.42 43.69C78.42 41.78 79.97 40.23 81.88 40.23C83.79 40.23 85.34 41.78 85.34 43.69ZM70.66 13.27C71.55 13.27 72.43 13.61 73.11 14.28C74.46 15.63 74.46 17.83 73.11 19.18C71.76 20.53 69.56 20.53 68.21 19.18C66.86 17.83 66.86 15.63 68.21 14.28C68.89 13.61 69.78 13.27 70.66 13.27ZM43.67 2.14C45.58 2.14 47.13 3.69 47.13 5.6C47.13 7.51 45.58 9.06 43.67 9.06C41.76 9.06 40.21 7.51 40.21 5.6C40.21 3.69 41.76 2.14 43.67 2.14ZM14.26 14.37C14.91 13.72 15.78 13.36 16.71 13.36C17.63 13.36 18.5 13.72 19.16 14.37C19.81 15.02 20.17 15.89 20.17 16.82C20.17 17.75 19.81 18.61 19.16 19.27C18.51 19.92 17.64 20.28 16.71 20.28C15.78 20.28 14.92 19.92 14.26 19.27C13.61 18.62 13.25 17.75 13.25 16.82C13.25 15.89 13.61 15.02 14.26 14.37ZM2.12 43.81C2.12 41.9 3.67 40.35 5.58 40.35C7.49 40.35 9.04 41.9 9.04 43.81C9.04 45.72 7.49 47.27 5.58 47.27C3.67 47.27 2.12 45.72 2.12 43.81ZM14.35 73.22C13.7 72.57 13.34 71.7 13.34 70.77C13.34 69.84 13.7 68.98 14.35 68.32C15.7 66.97 17.9 66.97 19.25 68.32C19.9 68.97 20.26 69.84 20.26 70.77C20.26 71.69 19.9 72.56 19.25 73.22C17.89 74.57 15.7 74.57 14.35 73.22ZM43.79 85.36C41.88 85.36 40.33 83.81 40.33 81.9C40.33 79.99 41.88 78.44 43.79 78.44C45.7 78.44 47.25 79.99 47.25 81.9C47.25 83.81 45.7 85.36 43.79 85.36ZM43.79 76.3C41.21 76.3 39.04 78.05 38.39 80.43C32.32 79.55 26.57 77.18 21.64 73.52C22.11 72.69 22.39 71.75 22.39 70.77C22.39 69.27 21.81 67.87 20.75 66.81C18.93 64.99 16.17 64.71 14.03 65.93C10.35 61.01 7.96 55.27 7.06 49.2C9.43 48.55 11.17 46.38 11.17 43.81C11.17 41.23 9.42 39.06 7.04 38.41C7.92 32.34 10.29 26.59 13.95 21.66C14.78 22.13 15.72 22.41 16.7 22.41C18.2 22.41 19.6 21.83 20.66 20.77C21.72 19.71 22.3 18.31 22.3 16.81C22.3 15.82 22.02 14.88 21.54 14.05C26.46 10.37 32.2 7.98 38.27 7.08C38.92 9.45 41.09 11.19 43.66 11.19C46.24 11.19 48.41 9.44 49.06 7.06C55.13 7.94 60.88 10.31 65.81 13.97C64.6 16.1 64.88 18.86 66.7 20.68C67.79 21.77 69.22 22.32 70.66 22.32C71.62 22.32 72.57 22.05 73.42 21.57C77.1 26.49 79.49 32.23 80.39 38.3C78.02 38.95 76.28 41.12 76.28 43.69C76.28 46.27 78.03 48.44 80.41 49.09C79.53 55.16 77.16 60.91 73.5 65.84C72.67 65.37 71.73 65.09 70.75 65.09C69.26 65.09 67.85 65.67 66.79 66.73C65.73 67.79 65.15 69.19 65.15 70.69C65.15 71.68 65.43 72.62 65.91 73.45C60.99 77.13 55.25 79.52 49.18 80.42C48.53 78.05 46.36 76.3 43.79 76.3ZM73.2 73.13C72.55 73.78 71.68 74.14 70.75 74.14C69.83 74.14 68.96 73.78 68.3 73.13C67.65 72.48 67.29 71.61 67.29 70.68C67.29 69.76 67.65 68.89 68.3 68.23C68.95 67.58 69.82 67.22 70.75 67.22C71.68 67.22 72.54 67.58 73.2 68.23C73.85 68.88 74.21 69.75 74.21 70.68C74.21 71.61 73.85 72.48 73.2 73.13ZM67.44 56.82V30.68C67.44 30.3 67.24 29.95 66.91 29.76L44.26 16.68C43.93 16.49 43.52 16.49 43.19 16.68L20.56 29.76C20.23 29.95 20.03 30.3 20.03 30.68V56.82C20.03 57.2 20.23 57.55 20.56 57.74L43.2 70.81C43.36 70.91 43.55 70.95 43.73 70.95C43.91 70.95 44.1 70.9 44.26 70.81L66.9 57.74C67.23 57.55 67.44 57.2 67.44 56.82ZM43.73 18.84L64.24 30.68L43.73 42.52L23.22 30.68L43.73 18.84ZM22.16 32.53L42.67 44.37V68.05L22.16 56.2V32.53ZM44.8 68.04V44.37L65.31 32.53V56.21L44.8 68.04Z" fill="#034737"/>
</svg>
