<svg width="86" height="82" viewBox="0 0 86 82" fill="none" xmlns="http://www.w3.org/2000/svg">
<path d="M5.65805 0C2.54684 0 0 2.56752 0 5.68123V46.5443V53.4619C0 56.5756 2.54684 59.1431 5.65805 59.1431H32.2862V70.4911H18.9548C18.5636 70.4926 18.1889 70.6487 17.9122 70.9253C17.6356 71.2019 17.4795 71.5766 17.478 71.9678V80.3622C17.4795 80.7534 17.6356 81.1281 17.9122 81.4047C18.1889 81.6814 18.5636 81.8374 18.9548 81.839H67.0453C67.4385 81.8405 67.8161 81.6858 68.0952 81.4088C68.3744 81.1319 68.532 80.7554 68.5336 80.3622V71.9678C68.532 71.5746 68.3744 71.1982 68.0952 70.9212C67.8161 70.6443 67.4385 70.4896 67.0453 70.4911H53.7138V59.1431H80.342C83.4532 59.1431 86 56.5756 86 53.4619V12.596V5.68123C86 2.56752 83.4532 0 80.342 0H5.65805ZM5.65805 2.96511H80.342C81.8563 2.96511 83.0349 4.15344 83.0349 5.68123V12.596V53.4619C83.0349 54.9897 81.8563 56.1751 80.342 56.1751H5.65805C4.14369 56.1751 2.96802 54.9897 2.96801 53.4619V46.5443V5.68123C2.96801 5.58574 2.9706 5.49004 2.97961 5.39747C3.11455 4.00828 4.23834 2.96511 5.65805 2.96511ZM27.1754 16.0012C26.7839 16.024 26.4174 16.201 26.1562 16.4935L15.5408 28.5972C15.3054 28.8672 15.1757 29.2133 15.1757 29.5716C15.1757 29.9298 15.3054 30.2759 15.5408 30.5459L26.1562 42.6496C26.4163 42.9438 26.7826 43.1228 27.1745 43.1472C27.5665 43.1716 27.9521 43.0395 28.2468 42.7799C28.5426 42.5214 28.7238 42.156 28.7504 41.764C28.777 41.372 28.6469 40.9854 28.3887 40.6893L18.6275 29.5701L28.3887 18.4509C28.6469 18.1548 28.777 17.7682 28.7504 17.3762C28.7238 16.9842 28.5426 16.6188 28.2468 16.3603C27.9511 16.1039 27.5659 15.9748 27.1754 16.0012ZM58.8246 16.0012C58.4341 15.9748 58.0489 16.1039 57.7532 16.3603C57.4586 16.62 57.2791 16.9861 57.2541 17.3781C57.2292 17.77 57.3608 18.1559 57.62 18.4509L67.3841 29.5701L57.62 40.6893C57.3608 40.9844 57.2292 41.3702 57.2542 41.7622C57.2791 42.1541 57.4586 42.5202 57.7532 42.7799C58.0479 43.0396 58.4335 43.1716 58.8255 43.1472C59.2174 43.1228 59.5837 42.9438 59.8438 42.6497L70.4708 30.546C70.7062 30.2759 70.8359 29.9298 70.8359 29.5716C70.8359 29.2134 70.7062 28.8672 70.4708 28.5972L59.8438 16.4935C59.5826 16.2011 59.2161 16.024 58.8246 16.0012ZM49.5904 16.6441C49.4936 16.6501 49.3976 16.6657 49.3038 16.6906C48.9272 16.7898 48.6047 17.0331 48.4061 17.3681L35.0341 40.2754C34.8373 40.615 34.7832 41.0187 34.8836 41.3982C34.9841 41.7776 35.2308 42.1017 35.5698 42.2994C35.908 42.4972 36.3107 42.5531 36.69 42.4549C37.0692 42.3567 37.3942 42.1124 37.5939 41.7754L50.9688 18.8681C51.1653 18.5282 51.219 18.1241 51.118 17.7447C51.0171 17.3652 50.7697 17.0413 50.4302 16.844C50.1763 16.6956 49.884 16.6259 49.5904 16.6441ZM35.2513 59.1431H50.7487V70.4911H35.2513V59.1431ZM20.4344 73.4562H33.7745H52.237H65.5656V78.8739H20.4344V73.4562Z" fill="#034737"/>
</svg>
