<svg width="79" height="82" viewBox="0 0 79 82" fill="none" xmlns="http://www.w3.org/2000/svg">
<mask id="path-1-inside-1_430_2196" fill="white">
<path d="M72.274 65.8588C73.7499 64.6497 74.6962 62.8121 74.6962 60.7594C74.6962 58.8398 73.8695 57.1081 72.5542 55.9024C73.1691 53.3237 73.4834 50.6663 73.4834 47.9919C73.4834 40.2488 70.9451 32.9534 66.1451 26.8939C61.5739 21.1249 55.1785 16.9512 48.0995 15.1036C46.9482 13.6145 45.4211 12.4292 43.6583 11.6949C45.1341 10.4858 46.0805 8.64821 46.0805 6.5955C46.0805 2.95787 43.1219 0 39.4902 0C35.8552 0 32.9 2.95787 32.9 6.5955C32.9 8.64829 33.8429 10.4858 35.3222 11.6949C33.5593 12.4293 32.0322 13.611 30.8809 15.1036C23.8021 16.9515 17.4069 21.1287 12.8354 26.8939C8.03534 32.9497 5.497 40.2457 5.497 47.9919C5.497 50.6561 5.81131 53.3065 6.42285 55.8853C5.11095 57.091 4.28761 58.8193 4.28761 60.7388C4.28761 62.7916 5.23392 64.6291 6.7098 65.8382C2.77413 67.4777 0 71.3646 0 75.8832C0 76.5253 0.51929 77.0445 1.16155 77.0445L20.5907 77.0479C20.8879 77.0479 21.1544 76.9352 21.3594 76.7541C26.7845 80.1766 33.0089 81.98 39.4801 81.98C45.9507 81.98 52.1757 80.18 57.5938 76.7576C57.8022 76.9488 58.0755 77.065 58.3796 77.065H77.8192C78.4615 77.065 78.9807 76.5458 78.9807 75.9037C78.9807 71.3814 76.2066 67.4945 72.2675 65.8552L72.274 65.8588ZM68.1027 65.0254C65.7488 65.0254 63.8356 63.1127 63.8356 60.7593C63.8356 58.406 65.7488 56.4933 68.1027 56.4933C70.4565 56.4933 72.3697 58.406 72.3697 60.7593C72.3697 63.1127 70.4565 65.0254 68.1027 65.0254ZM35.2135 6.59889C35.2135 4.24557 37.1267 2.32603 39.4806 2.32603C41.8345 2.32603 43.7477 4.24216 43.7477 6.59889C43.7477 8.95562 41.8345 10.8649 39.4806 10.8649C37.1267 10.8649 35.2135 8.95221 35.2135 6.59889ZM39.4806 13.1876C43.8057 13.1876 47.393 16.4119 47.96 20.5823H31.0008C31.5679 16.4119 35.1555 13.1876 39.4806 13.1876ZM6.60109 60.7393C6.60109 58.386 8.51768 56.4665 10.875 56.4665C13.2323 56.4665 15.142 58.3826 15.142 60.7393C15.142 63.0961 13.2289 65.0054 10.875 65.0054C8.52109 65.0054 6.60109 63.0926 6.60109 60.7393ZM2.3921 74.7225C2.95922 70.5521 6.54643 67.3278 10.8716 67.3278C15.1967 67.3278 18.7839 70.5521 19.351 74.7225H2.3921ZM21.6131 74.1385C21.005 70.3779 18.4631 67.2595 15.0434 65.8386C16.5193 64.6295 17.4656 62.7919 17.4656 60.7392C17.4656 57.1016 14.507 54.1437 10.8753 54.1437C10.0417 54.1437 9.24228 54.3008 8.50438 54.5843C8.04658 52.4222 7.81085 50.2124 7.81085 47.9888C7.81085 34.2994 16.5055 22.3273 29.262 18.007C28.835 19.1716 28.5993 20.432 28.5993 21.7436C28.5993 22.3857 29.1185 22.9048 29.7608 22.9048H49.2004C49.8427 22.9048 50.362 22.3857 50.362 21.7436C50.362 20.432 50.1297 19.1716 49.6992 18.007C62.456 22.3277 71.1504 34.3029 71.1504 47.9888C71.1504 50.2192 70.9146 52.4392 70.4534 54.6013C69.7189 54.3213 68.9263 54.1641 68.0961 54.1641C64.4611 54.1641 61.5059 57.122 61.5059 60.7528C61.5059 62.8056 62.4488 64.6431 63.9281 65.8522C60.5185 67.2731 57.9835 70.3779 57.3652 74.1213C52.0903 77.7418 45.9168 79.6511 39.4806 79.6511C33.0441 79.6511 26.8882 77.7452 21.6092 74.1316L21.6131 74.1385ZM59.6238 74.7396C60.1909 70.5692 63.7781 67.3449 68.1033 67.3449C72.4284 67.3449 76.0156 70.5692 76.5827 74.7396H59.6238ZM56.7131 46.3867C58.1548 44.8531 59.1319 42.5237 59.1319 39.4361H59.1284C59.1284 39.2585 59.0874 39.0774 59.002 38.9135L54.3523 29.8006C54.1542 29.4112 53.7545 29.1653 53.3172 29.1653H25.6441C25.2068 29.1653 24.8071 29.4112 24.609 29.8006L19.9593 38.9135C19.8739 39.0808 19.8329 39.2653 19.8329 39.4463H19.8294C19.8294 42.5339 20.8065 44.86 22.2482 46.3936V63.8918C22.2653 66.31 23.6797 66.8053 25.8013 66.8053H53.0807C55.3014 66.8053 56.6816 66.3168 56.7089 63.885V46.3868L56.7131 46.3867ZM22.2182 40.6042H32.102C31.7091 44.4808 29.3586 46.2604 27.1585 46.2604C24.9584 46.2604 22.6077 44.4808 22.2182 40.6042ZM51.8075 46.2535C49.6108 46.2535 47.2603 44.4739 46.8674 40.6042H56.7477C56.3548 44.4774 54.0042 46.2535 51.8075 46.2535ZM26.3585 31.4912H52.6104L56.0745 38.2779L22.8942 38.2848L26.3584 31.498L26.3585 31.4912ZM44.4276 40.6041C44.0348 44.4773 41.6843 46.2568 39.4842 46.2568C37.284 46.2568 34.9336 44.4773 34.5407 40.6041H44.4276ZM37.2157 64.4792H29.99V52.6785H37.2157V64.4792ZM54.349 64.3665C54.2328 64.4075 53.9151 64.4792 53.0849 64.4792H39.5392V52.5421C39.5392 51.3364 38.5587 50.3527 37.3493 50.3527H29.8503C28.6444 50.3527 27.6604 51.333 27.6604 52.5421V64.4792H25.8019C25.0298 64.4792 24.7257 64.4143 24.613 64.3767C24.5959 64.3084 24.5754 64.1615 24.5754 63.8849V48.0436C25.4022 48.4023 26.2802 48.5867 27.1548 48.5867C29.1124 48.5867 30.9265 47.7362 32.2691 46.1924C32.6723 45.7278 33.0242 45.2121 33.318 44.6485C33.6152 45.2121 33.9637 45.7245 34.3668 46.1889C35.7095 47.7328 37.5235 48.5833 39.4811 48.5833C41.8624 48.5833 44.2606 47.2409 45.6375 44.6349C45.9347 45.2019 46.2866 45.7211 46.6931 46.1889C48.0358 47.7328 49.8499 48.5833 51.8075 48.5833C52.6821 48.5833 53.5601 48.3988 54.3869 48.0402V50.3593H44.6019C43.5325 50.3593 42.6648 51.2269 42.6648 52.2994V59.8547C42.6648 60.9238 43.5326 61.7913 44.6019 61.7913H54.3869V63.8782C54.3834 64.1616 54.3629 64.3085 54.3459 64.3768L54.349 64.3665ZM54.39 52.6751V59.4584H44.9916V52.6751H54.39Z"/>
</mask>
<path d="M72.274 65.8588C73.7499 64.6497 74.6962 62.8121 74.6962 60.7594C74.6962 58.8398 73.8695 57.1081 72.5542 55.9024C73.1691 53.3237 73.4834 50.6663 73.4834 47.9919C73.4834 40.2488 70.9451 32.9534 66.1451 26.8939C61.5739 21.1249 55.1785 16.9512 48.0995 15.1036C46.9482 13.6145 45.4211 12.4292 43.6583 11.6949C45.1341 10.4858 46.0805 8.64821 46.0805 6.5955C46.0805 2.95787 43.1219 0 39.4902 0C35.8552 0 32.9 2.95787 32.9 6.5955C32.9 8.64829 33.8429 10.4858 35.3222 11.6949C33.5593 12.4293 32.0322 13.611 30.8809 15.1036C23.8021 16.9515 17.4069 21.1287 12.8354 26.8939C8.03534 32.9497 5.497 40.2457 5.497 47.9919C5.497 50.6561 5.81131 53.3065 6.42285 55.8853C5.11095 57.091 4.28761 58.8193 4.28761 60.7388C4.28761 62.7916 5.23392 64.6291 6.7098 65.8382C2.77413 67.4777 0 71.3646 0 75.8832C0 76.5253 0.51929 77.0445 1.16155 77.0445L20.5907 77.0479C20.8879 77.0479 21.1544 76.9352 21.3594 76.7541C26.7845 80.1766 33.0089 81.98 39.4801 81.98C45.9507 81.98 52.1757 80.18 57.5938 76.7576C57.8022 76.9488 58.0755 77.065 58.3796 77.065H77.8192C78.4615 77.065 78.9807 76.5458 78.9807 75.9037C78.9807 71.3814 76.2066 67.4945 72.2675 65.8552L72.274 65.8588ZM68.1027 65.0254C65.7488 65.0254 63.8356 63.1127 63.8356 60.7593C63.8356 58.406 65.7488 56.4933 68.1027 56.4933C70.4565 56.4933 72.3697 58.406 72.3697 60.7593C72.3697 63.1127 70.4565 65.0254 68.1027 65.0254ZM35.2135 6.59889C35.2135 4.24557 37.1267 2.32603 39.4806 2.32603C41.8345 2.32603 43.7477 4.24216 43.7477 6.59889C43.7477 8.95562 41.8345 10.8649 39.4806 10.8649C37.1267 10.8649 35.2135 8.95221 35.2135 6.59889ZM39.4806 13.1876C43.8057 13.1876 47.393 16.4119 47.96 20.5823H31.0008C31.5679 16.4119 35.1555 13.1876 39.4806 13.1876ZM6.60109 60.7393C6.60109 58.386 8.51768 56.4665 10.875 56.4665C13.2323 56.4665 15.142 58.3826 15.142 60.7393C15.142 63.0961 13.2289 65.0054 10.875 65.0054C8.52109 65.0054 6.60109 63.0926 6.60109 60.7393ZM2.3921 74.7225C2.95922 70.5521 6.54643 67.3278 10.8716 67.3278C15.1967 67.3278 18.7839 70.5521 19.351 74.7225H2.3921ZM21.6131 74.1385C21.005 70.3779 18.4631 67.2595 15.0434 65.8386C16.5193 64.6295 17.4656 62.7919 17.4656 60.7392C17.4656 57.1016 14.507 54.1437 10.8753 54.1437C10.0417 54.1437 9.24228 54.3008 8.50438 54.5843C8.04658 52.4222 7.81085 50.2124 7.81085 47.9888C7.81085 34.2994 16.5055 22.3273 29.262 18.007C28.835 19.1716 28.5993 20.432 28.5993 21.7436C28.5993 22.3857 29.1185 22.9048 29.7608 22.9048H49.2004C49.8427 22.9048 50.362 22.3857 50.362 21.7436C50.362 20.432 50.1297 19.1716 49.6992 18.007C62.456 22.3277 71.1504 34.3029 71.1504 47.9888C71.1504 50.2192 70.9146 52.4392 70.4534 54.6013C69.7189 54.3213 68.9263 54.1641 68.0961 54.1641C64.4611 54.1641 61.5059 57.122 61.5059 60.7528C61.5059 62.8056 62.4488 64.6431 63.9281 65.8522C60.5185 67.2731 57.9835 70.3779 57.3652 74.1213C52.0903 77.7418 45.9168 79.6511 39.4806 79.6511C33.0441 79.6511 26.8882 77.7452 21.6092 74.1316L21.6131 74.1385ZM59.6238 74.7396C60.1909 70.5692 63.7781 67.3449 68.1033 67.3449C72.4284 67.3449 76.0156 70.5692 76.5827 74.7396H59.6238ZM56.7131 46.3867C58.1548 44.8531 59.1319 42.5237 59.1319 39.4361H59.1284C59.1284 39.2585 59.0874 39.0774 59.002 38.9135L54.3523 29.8006C54.1542 29.4112 53.7545 29.1653 53.3172 29.1653H25.6441C25.2068 29.1653 24.8071 29.4112 24.609 29.8006L19.9593 38.9135C19.8739 39.0808 19.8329 39.2653 19.8329 39.4463H19.8294C19.8294 42.5339 20.8065 44.86 22.2482 46.3936V63.8918C22.2653 66.31 23.6797 66.8053 25.8013 66.8053H53.0807C55.3014 66.8053 56.6816 66.3168 56.7089 63.885V46.3868L56.7131 46.3867ZM22.2182 40.6042H32.102C31.7091 44.4808 29.3586 46.2604 27.1585 46.2604C24.9584 46.2604 22.6077 44.4808 22.2182 40.6042ZM51.8075 46.2535C49.6108 46.2535 47.2603 44.4739 46.8674 40.6042H56.7477C56.3548 44.4774 54.0042 46.2535 51.8075 46.2535ZM26.3585 31.4912H52.6104L56.0745 38.2779L22.8942 38.2848L26.3584 31.498L26.3585 31.4912ZM44.4276 40.6041C44.0348 44.4773 41.6843 46.2568 39.4842 46.2568C37.284 46.2568 34.9336 44.4773 34.5407 40.6041H44.4276ZM37.2157 64.4792H29.99V52.6785H37.2157V64.4792ZM54.349 64.3665C54.2328 64.4075 53.9151 64.4792 53.0849 64.4792H39.5392V52.5421C39.5392 51.3364 38.5587 50.3527 37.3493 50.3527H29.8503C28.6444 50.3527 27.6604 51.333 27.6604 52.5421V64.4792H25.8019C25.0298 64.4792 24.7257 64.4143 24.613 64.3767C24.5959 64.3084 24.5754 64.1615 24.5754 63.8849V48.0436C25.4022 48.4023 26.2802 48.5867 27.1548 48.5867C29.1124 48.5867 30.9265 47.7362 32.2691 46.1924C32.6723 45.7278 33.0242 45.2121 33.318 44.6485C33.6152 45.2121 33.9637 45.7245 34.3668 46.1889C35.7095 47.7328 37.5235 48.5833 39.4811 48.5833C41.8624 48.5833 44.2606 47.2409 45.6375 44.6349C45.9347 45.2019 46.2866 45.7211 46.6931 46.1889C48.0358 47.7328 49.8499 48.5833 51.8075 48.5833C52.6821 48.5833 53.5601 48.3988 54.3869 48.0402V50.3593H44.6019C43.5325 50.3593 42.6648 51.2269 42.6648 52.2994V59.8547C42.6648 60.9238 43.5326 61.7913 44.6019 61.7913H54.3869V63.8782C54.3834 64.1616 54.3629 64.3085 54.3459 64.3768L54.349 64.3665ZM54.39 52.6751V59.4584H44.9916V52.6751H54.39Z" fill="#034737" stroke="#034737" stroke-width="1.99951" mask="url(#path-1-inside-1_430_2196)"/>
</svg>
