<svg width="82" height="80" viewBox="0 0 82 80" fill="none" xmlns="http://www.w3.org/2000/svg">
<path d="M56.2096 57.8984H56.0025L55.8561 58.0449L48.2484 65.6521L48.2475 65.653C47.6393 66.2643 46.8305 66.5995 45.9671 66.5995H36.0294C34.2476 66.5995 32.8008 65.1498 32.8008 63.3709C32.8008 61.5891 34.2504 60.1423 36.0294 60.1423H44.4264H44.6335L44.78 59.9959L52.3838 52.392L52.3847 52.3911C52.9929 51.7799 53.8017 51.4447 54.665 51.4447H63.0621H63.2692L63.4157 51.2982L68.6223 46.0916L69.1708 45.5431L68.4448 45.27C67.2204 44.8094 66.3472 43.6279 66.3472 42.2471C66.3472 40.4653 67.7968 39.0186 69.5758 39.0186H77.0293C78.8111 39.0186 80.2579 40.4682 80.2579 42.2471V49.7007C80.2579 51.4825 78.8082 52.9293 77.0293 52.9293C75.6486 52.9293 74.4671 52.056 74.0064 50.8316L73.7333 50.1057L73.1849 50.6541L66.8879 56.9511L66.887 56.952C66.2789 57.5632 65.4701 57.8984 64.6067 57.8984H56.2096ZM71.714 44.4476L71.7145 44.4489C71.8287 44.7229 71.7668 45.042 71.5535 45.2553L64.0999 52.7089C63.9626 52.8462 63.7716 52.9259 63.5763 52.9259H54.6656C54.2082 52.9259 53.7595 53.1112 53.435 53.4357L45.4642 61.4065C45.3269 61.5438 45.1359 61.6235 44.9406 61.6235H36.0299C35.0689 61.6235 34.2859 62.4065 34.2859 63.3675C34.2859 64.3285 35.0688 65.1115 36.0299 65.1115H45.9677C46.4249 65.1115 46.874 64.9264 47.1987 64.6017L55.1695 56.6309C55.3068 56.4936 55.4978 56.4139 55.693 56.4139H64.6038C65.0612 56.4139 65.5099 56.2286 65.8344 55.9041L74.0183 47.7202L74.0201 47.7184C74.2281 47.5083 74.5463 47.4439 74.826 47.5596L74.826 47.5596C75.1032 47.6742 75.2824 47.9422 75.2824 48.2437V49.7008C75.2824 50.6619 76.0653 51.4448 77.0264 51.4448C77.9918 51.4448 78.7703 50.661 78.7703 49.7008V42.2473C78.7703 41.2863 77.9874 40.5033 77.0264 40.5033H69.5728C68.6074 40.5033 67.8288 41.2872 67.8288 42.2473C67.8288 43.2083 68.6117 43.9913 69.5728 43.9913H71.03C71.3287 43.9913 71.5997 44.1712 71.714 44.4476Z" fill="#034737" stroke="#034737"/>
<path d="M38.5118 70.0801H40.9963C42.778 70.0801 44.2248 71.5297 44.2248 73.3086V75.7931C44.2248 77.5749 42.7752 79.0217 40.9963 79.0217H38.5118C36.73 79.0217 35.2832 77.572 35.2832 75.7931V73.3086C35.2832 71.5269 36.7329 70.0801 38.5118 70.0801ZM40.9963 77.5371C41.9573 77.5371 42.7403 76.7542 42.7403 75.7931V73.3086C42.7403 72.3476 41.9573 71.5647 40.9963 71.5647H38.5118C37.5508 71.5647 36.7678 72.3476 36.7678 73.3086V75.7931C36.7678 76.7542 37.5507 77.5371 38.5118 77.5371H40.9963Z" fill="#034737" stroke="#034737"/>
<path d="M50.9395 70.0801H53.424C55.2058 70.0801 56.6526 71.5297 56.6526 73.3086V75.7931C56.6526 77.5749 55.2029 79.0217 53.424 79.0217H50.9395C49.1577 79.0217 47.7109 77.572 47.7109 75.7931V73.3086C47.7109 71.5269 49.1606 70.0801 50.9395 70.0801ZM53.4205 77.5371C54.3859 77.5371 55.1645 76.7533 55.1645 75.7931V73.3086C55.1645 72.3476 54.3816 71.5647 53.4205 71.5647H50.936C49.9706 71.5647 49.192 72.3485 49.192 73.3086V75.7931C49.192 76.7542 49.975 77.5371 50.936 77.5371H53.4205Z" fill="#034737" stroke="#034737"/>
<path d="M63.3594 61.3826H65.8439C67.6257 61.3826 69.0725 62.8322 69.0725 64.6111V75.7933C69.0725 77.5751 67.6228 79.0218 65.8439 79.0218H63.3594C61.5776 79.0218 60.1309 77.5722 60.1309 75.7933V64.6111C60.1309 62.8294 61.5805 61.3826 63.3594 61.3826ZM65.8439 77.5373C66.8094 77.5373 67.5879 76.7534 67.5879 75.7933V64.6111C67.5879 63.6501 66.805 62.8671 65.8439 62.8671H63.3594C62.394 62.8671 61.6154 63.651 61.6154 64.6111V75.7933C61.6154 76.7543 62.3984 77.5373 63.3594 77.5373H65.8439Z" fill="#034737" stroke="#034737"/>
<path d="M75.7872 56.4138H78.2717C80.0534 56.4138 81.5002 57.8635 81.5002 59.6424V75.7939C81.5002 77.5756 80.0506 79.0224 78.2717 79.0224H75.7872C74.0054 79.0224 72.5586 77.5728 72.5586 75.7939V59.6424C72.5586 57.8606 74.0083 56.4138 75.7872 56.4138ZM78.2682 77.5379C79.2336 77.5379 80.0122 76.754 80.0122 75.7939V59.6424C80.0122 58.6814 79.2292 57.8984 78.2682 57.8984H75.7837C74.8182 57.8984 74.0397 58.6823 74.0397 59.6424V75.7939C74.0397 76.7549 74.8226 77.5379 75.7837 77.5379H78.2682Z" fill="#034737" stroke="#034737"/>
<path d="M33.0434 58.3983V58.4974C32.9949 58.8619 32.6822 59.1425 32.3059 59.1425H6.21306C3.0647 59.1425 0.5 56.5778 0.5 53.4294V13.6702C0.5 10.5218 3.0647 7.95714 6.21306 7.95714H20.4564H20.7241L20.8725 7.73435L23.9966 3.04483L23.9967 3.04457C25.057 1.45077 26.8331 0.5 28.7486 0.5H40.8253C42.7371 0.5 44.5135 1.45064 45.5777 3.04517L48.7015 7.73435L48.8499 7.95714H49.1176H63.3609C66.5093 7.95714 69.074 10.5218 69.074 13.6702V36.157C69.074 36.5693 68.7422 36.901 68.33 36.901C67.9187 36.901 67.586 36.5667 67.586 36.157V22.6893V21.5588L66.7496 22.3193L56.5851 31.5616C56.585 31.5617 56.5849 31.5618 56.5848 31.5619C55.6896 32.3738 54.5636 32.854 53.3646 32.9865L52.9196 33.0357V33.4835V34.7904C52.9196 36.5722 51.4699 38.019 49.691 38.019H47.2065C45.4247 38.019 43.9779 36.5693 43.9779 34.7904V33.5464V33.0464H43.4779H24.8422H24.3422V33.5464V34.7904C24.3422 36.5722 22.8926 38.019 21.1137 38.019H18.6292C16.8474 38.019 15.4006 36.5693 15.4006 34.7904V33.4695V33.0313L14.9662 32.9738C13.723 32.8091 12.5753 32.2717 11.6794 31.3757L2.83151 22.5279L1.97796 21.6743V22.8814V53.4292C1.97796 55.7639 3.87595 57.6578 6.20653 57.6578H6.2066L32.2994 57.6543C32.2994 57.6543 32.2994 57.6543 32.2994 57.6543C32.7107 57.6543 33.0434 57.9886 33.0434 58.3983ZM22.8612 34.7933V34.2933H22.8578V33.5493V33.0493H22.3578H17.3888H16.8888V33.5493V34.7933C16.8888 35.7543 17.6717 36.5372 18.6327 36.5372H21.1172C22.0783 36.5372 22.8612 35.7543 22.8612 34.7933ZM51.4347 34.7933V34.2933H51.4313V33.5493V33.0493H50.9313H45.9622H45.4622V33.5493V34.7933C45.4622 35.7543 46.2452 36.5372 47.2062 36.5372H49.6907C50.6561 36.5372 51.4347 35.7534 51.4347 34.7933ZM46.1294 7.95624H47.0643L46.5453 7.17868L44.337 3.86971C43.5525 2.69297 42.2364 1.98717 40.8214 1.98717H28.7447C27.4214 1.98717 26.1845 2.6045 25.3882 3.64705H25.3741L25.2257 3.8698L23.0208 7.179L22.5029 7.95624H23.4369H46.1294ZM63.3612 9.44431H7.68855L7.69302 9.44091H6.21065C3.87597 9.44091 1.98208 11.3389 1.98208 13.6695V19.3689V19.576L2.12852 19.7224L12.7336 30.3275C12.7336 30.3276 12.7337 30.3276 12.7337 30.3276C13.5194 31.1134 14.6075 31.5643 15.7219 31.5643C15.722 31.5643 15.722 31.5643 15.722 31.5643L52.742 31.5678C53.7952 31.5678 54.8063 31.1795 55.5873 30.4699L55.5873 30.4699L67.4261 19.7073L67.5898 19.5585V19.3373V13.6729C67.5898 11.3382 65.6918 9.44431 63.3612 9.44431Z" fill="#034737" stroke="#034737"/>
</svg>
