<svg width="82" height="82" viewBox="0 0 82 82" fill="none" xmlns="http://www.w3.org/2000/svg">
<mask id="path-1-inside-1_430_2210" fill="white">
<path fill-rule="evenodd" clip-rule="evenodd" d="M7.76427 57.1935C11.7076 57.1935 13.9878 61.6684 11.7043 64.8562C14.0076 66.0442 15.5321 68.4335 15.5321 71.1198V79.6474C15.5321 80.4229 14.9051 81.0499 14.1296 81.0499H1.40247C0.627006 81.0499 0 80.4229 0 79.6474V71.1198C0 68.4335 1.52783 66.0443 3.82777 64.8562C1.54431 61.6717 3.82422 57.1935 7.76427 57.1935ZM48.1277 18.5863C47.3754 18.7513 46.6296 18.2761 46.4646 17.5237C46.2996 16.7713 46.7748 16.0255 47.5271 15.8604L53.3843 14.5669C54.1466 14.3986 54.8957 14.8771 55.0574 15.6625H55.0607L56.209 21.4442C56.3575 22.2033 55.8626 22.9391 55.1003 23.0877C54.3413 23.2362 53.6055 22.7412 53.457 21.9788L52.9026 19.2035L46.6593 27.8163C49.8338 29.3938 53.523 29.242 56.5126 27.5193C58.8423 26.1268 60.5978 24.0411 61.3601 21.1964C62.8483 15.6391 59.5551 9.93671 54.0015 8.45153C48.4446 6.96322 42.7425 10.2599 41.2574 15.8106C40.5117 18.5893 40.9637 21.4009 42.2936 23.7077C42.881 24.6912 43.4782 25.4633 44.3428 26.2422L50.2298 18.124L48.1277 18.5863ZM7.34189 51.943C6.79411 52.4908 5.90648 52.4908 5.35865 51.943C4.81087 51.3952 4.81087 50.5075 5.35865 49.9596L16.3735 38.9441C16.9212 38.3963 17.8089 38.3963 18.3567 38.9441L21.1484 41.7359L29.3749 32.7733C29.9095 32.1925 30.8004 32.1595 31.3944 32.7337L36.1725 37.5121L38.5616 34.2154C39.017 33.5884 39.8914 33.4498 40.5151 33.9052C41.1421 34.3606 41.2807 35.2351 40.8253 35.8588L37.3275 40.6571C36.7797 41.205 35.8921 41.205 35.3442 40.6571L30.4407 35.7532L22.2768 44.65C21.7026 45.3166 20.7721 45.3364 20.1946 44.7589L17.3601 41.9241L7.34189 51.943ZM62.1127 37.4291L62.1589 37.3829L59.6709 35.0068C50.9065 39.4553 40.2152 36.2675 35.2978 27.7566C30.1864 18.9055 33.2157 7.60019 42.0691 2.48821C50.9129 -2.63019 62.2183 0.40253 67.3291 9.25003C70.9062 15.4409 70.6223 23.2326 66.4283 29.1691L68.4412 31.0897L68.6127 30.9181C69.1605 30.3703 70.0482 30.3703 70.596 30.9181L80.1756 40.505C83.6206 43.9503 81.7628 48.7882 78.123 50.3395C76.1233 51.1942 73.7078 51.0094 71.6883 48.9931L62.1054 39.4095C61.5642 38.8617 61.565 37.9736 62.1127 37.4291ZM64.1388 35.3996L66.4652 33.073L64.6437 31.3306C63.8748 32.1292 63.04 32.852 62.1491 33.4954L64.1388 35.3996ZM69.6034 33.8981L65.0826 38.4192L73.6721 47.0093C75.6256 48.9629 78.1467 47.7287 78.9452 45.8444C79.3808 44.8214 79.2686 43.5673 78.1896 42.4882L69.6034 33.8981ZM54.7339 5.74547C58.2516 6.6893 61.0564 8.97292 62.746 11.8967C66.3956 18.2197 64.2342 26.2848 57.9149 29.9352C51.5924 33.5851 43.5278 31.4235 39.8776 25.1039C36.228 18.781 38.3894 10.7091 44.7086 7.06287C47.639 5.37324 51.2093 4.79902 54.73 5.74285L54.7339 5.74547ZM64.9074 10.6527C66.9203 14.1309 67.5934 18.3748 66.4715 22.5662C64.2277 30.9418 55.6282 35.9118 47.2465 33.668C43.0557 32.546 39.7195 29.8333 37.7134 26.3584V26.3551C35.7071 22.8768 35.0273 18.6329 36.1492 14.4415C37.2711 10.2504 39.9837 6.91401 43.4583 4.90774H43.4616C50.9687 0.568182 60.5746 3.14504 64.9074 10.6527ZM60.8518 56.87C63.5445 54.1309 63.5247 49.7352 60.8122 47.016C58.0799 44.2836 53.6516 44.2836 50.9193 47.016C48.2035 49.7319 48.187 54.131 50.8797 56.87C46.8802 58.4276 44.1183 62.3085 44.1183 66.7306V80.5974C44.1183 81.373 44.7453 82 45.5208 82H66.214C66.9895 82 67.6165 81.373 67.6165 80.5974V66.7306C67.6099 62.3118 64.8513 58.431 60.8518 56.87ZM57.0372 58.9589C61.3073 58.9589 64.8084 62.457 64.8084 66.7306V79.195L46.9197 79.1983V66.7339C46.9197 62.4636 50.4175 58.9622 54.6908 58.9622L57.0372 58.9589ZM58.8258 49.0028C56.1925 46.3693 51.6717 48.2438 51.6717 51.9662C51.6717 55.6887 56.1925 57.5598 58.8258 54.9297C60.4625 53.2928 60.4625 50.6396 58.8258 49.0028ZM29.1468 59.6584C32.0441 59.6584 33.4795 56.1538 31.4469 54.1242C29.4075 52.0848 25.913 53.5368 25.913 56.4177C25.9097 58.2064 27.3583 59.6551 29.1468 59.6584ZM33.7006 60.401C35.7993 58.0051 35.6805 54.3915 33.43 52.1377C31.0673 49.7748 27.2395 49.7748 24.8768 52.1377C22.6263 54.3883 22.5042 58.0019 24.6062 60.401C21.3658 61.8101 19.1582 65.031 19.1582 68.6808V80.1982C19.1582 80.9737 19.7852 81.6007 20.5607 81.6007H37.7498C38.5253 81.6007 39.1523 80.9737 39.1523 80.1982V68.6808C39.149 65.031 36.9443 61.8101 33.7006 60.401ZM30.1268 62.4635C33.5455 62.4635 36.3438 65.2619 36.3438 68.6808V78.7992H21.96V68.6808C21.96 65.2619 24.7583 62.4635 28.177 62.4635H30.1268ZM7.77027 66.879H7.041C4.71133 66.879 2.80073 68.7897 2.80073 71.1195V78.2477H12.7233V71.1195C12.7233 68.7897 10.8127 66.879 8.48301 66.879H7.77027ZM7.75707 64.074C9.58521 64.074 10.4795 61.8695 9.20237 60.5957C7.92205 59.3153 5.72432 60.2261 5.72432 62.0345C5.72762 63.1598 6.63514 64.0707 7.75707 64.074Z"/>
</mask>
<path fill-rule="evenodd" clip-rule="evenodd" d="M7.76427 57.1935C11.7076 57.1935 13.9878 61.6684 11.7043 64.8562C14.0076 66.0442 15.5321 68.4335 15.5321 71.1198V79.6474C15.5321 80.4229 14.9051 81.0499 14.1296 81.0499H1.40247C0.627006 81.0499 0 80.4229 0 79.6474V71.1198C0 68.4335 1.52783 66.0443 3.82777 64.8562C1.54431 61.6717 3.82422 57.1935 7.76427 57.1935ZM48.1277 18.5863C47.3754 18.7513 46.6296 18.2761 46.4646 17.5237C46.2996 16.7713 46.7748 16.0255 47.5271 15.8604L53.3843 14.5669C54.1466 14.3986 54.8957 14.8771 55.0574 15.6625H55.0607L56.209 21.4442C56.3575 22.2033 55.8626 22.9391 55.1003 23.0877C54.3413 23.2362 53.6055 22.7412 53.457 21.9788L52.9026 19.2035L46.6593 27.8163C49.8338 29.3938 53.523 29.242 56.5126 27.5193C58.8423 26.1268 60.5978 24.0411 61.3601 21.1964C62.8483 15.6391 59.5551 9.93671 54.0015 8.45153C48.4446 6.96322 42.7425 10.2599 41.2574 15.8106C40.5117 18.5893 40.9637 21.4009 42.2936 23.7077C42.881 24.6912 43.4782 25.4633 44.3428 26.2422L50.2298 18.124L48.1277 18.5863ZM7.34189 51.943C6.79411 52.4908 5.90648 52.4908 5.35865 51.943C4.81087 51.3952 4.81087 50.5075 5.35865 49.9596L16.3735 38.9441C16.9212 38.3963 17.8089 38.3963 18.3567 38.9441L21.1484 41.7359L29.3749 32.7733C29.9095 32.1925 30.8004 32.1595 31.3944 32.7337L36.1725 37.5121L38.5616 34.2154C39.017 33.5884 39.8914 33.4498 40.5151 33.9052C41.1421 34.3606 41.2807 35.2351 40.8253 35.8588L37.3275 40.6571C36.7797 41.205 35.8921 41.205 35.3442 40.6571L30.4407 35.7532L22.2768 44.65C21.7026 45.3166 20.7721 45.3364 20.1946 44.7589L17.3601 41.9241L7.34189 51.943ZM62.1127 37.4291L62.1589 37.3829L59.6709 35.0068C50.9065 39.4553 40.2152 36.2675 35.2978 27.7566C30.1864 18.9055 33.2157 7.60019 42.0691 2.48821C50.9129 -2.63019 62.2183 0.40253 67.3291 9.25003C70.9062 15.4409 70.6223 23.2326 66.4283 29.1691L68.4412 31.0897L68.6127 30.9181C69.1605 30.3703 70.0482 30.3703 70.596 30.9181L80.1756 40.505C83.6206 43.9503 81.7628 48.7882 78.123 50.3395C76.1233 51.1942 73.7078 51.0094 71.6883 48.9931L62.1054 39.4095C61.5642 38.8617 61.565 37.9736 62.1127 37.4291ZM64.1388 35.3996L66.4652 33.073L64.6437 31.3306C63.8748 32.1292 63.04 32.852 62.1491 33.4954L64.1388 35.3996ZM69.6034 33.8981L65.0826 38.4192L73.6721 47.0093C75.6256 48.9629 78.1467 47.7287 78.9452 45.8444C79.3808 44.8214 79.2686 43.5673 78.1896 42.4882L69.6034 33.8981ZM54.7339 5.74547C58.2516 6.6893 61.0564 8.97292 62.746 11.8967C66.3956 18.2197 64.2342 26.2848 57.9149 29.9352C51.5924 33.5851 43.5278 31.4235 39.8776 25.1039C36.228 18.781 38.3894 10.7091 44.7086 7.06287C47.639 5.37324 51.2093 4.79902 54.73 5.74285L54.7339 5.74547ZM64.9074 10.6527C66.9203 14.1309 67.5934 18.3748 66.4715 22.5662C64.2277 30.9418 55.6282 35.9118 47.2465 33.668C43.0557 32.546 39.7195 29.8333 37.7134 26.3584V26.3551C35.7071 22.8768 35.0273 18.6329 36.1492 14.4415C37.2711 10.2504 39.9837 6.91401 43.4583 4.90774H43.4616C50.9687 0.568182 60.5746 3.14504 64.9074 10.6527ZM60.8518 56.87C63.5445 54.1309 63.5247 49.7352 60.8122 47.016C58.0799 44.2836 53.6516 44.2836 50.9193 47.016C48.2035 49.7319 48.187 54.131 50.8797 56.87C46.8802 58.4276 44.1183 62.3085 44.1183 66.7306V80.5974C44.1183 81.373 44.7453 82 45.5208 82H66.214C66.9895 82 67.6165 81.373 67.6165 80.5974V66.7306C67.6099 62.3118 64.8513 58.431 60.8518 56.87ZM57.0372 58.9589C61.3073 58.9589 64.8084 62.457 64.8084 66.7306V79.195L46.9197 79.1983V66.7339C46.9197 62.4636 50.4175 58.9622 54.6908 58.9622L57.0372 58.9589ZM58.8258 49.0028C56.1925 46.3693 51.6717 48.2438 51.6717 51.9662C51.6717 55.6887 56.1925 57.5598 58.8258 54.9297C60.4625 53.2928 60.4625 50.6396 58.8258 49.0028ZM29.1468 59.6584C32.0441 59.6584 33.4795 56.1538 31.4469 54.1242C29.4075 52.0848 25.913 53.5368 25.913 56.4177C25.9097 58.2064 27.3583 59.6551 29.1468 59.6584ZM33.7006 60.401C35.7993 58.0051 35.6805 54.3915 33.43 52.1377C31.0673 49.7748 27.2395 49.7748 24.8768 52.1377C22.6263 54.3883 22.5042 58.0019 24.6062 60.401C21.3658 61.8101 19.1582 65.031 19.1582 68.6808V80.1982C19.1582 80.9737 19.7852 81.6007 20.5607 81.6007H37.7498C38.5253 81.6007 39.1523 80.9737 39.1523 80.1982V68.6808C39.149 65.031 36.9443 61.8101 33.7006 60.401ZM30.1268 62.4635C33.5455 62.4635 36.3438 65.2619 36.3438 68.6808V78.7992H21.96V68.6808C21.96 65.2619 24.7583 62.4635 28.177 62.4635H30.1268ZM7.77027 66.879H7.041C4.71133 66.879 2.80073 68.7897 2.80073 71.1195V78.2477H12.7233V71.1195C12.7233 68.7897 10.8127 66.879 8.48301 66.879H7.77027ZM7.75707 64.074C9.58521 64.074 10.4795 61.8695 9.20237 60.5957C7.92205 59.3153 5.72432 60.2261 5.72432 62.0345C5.72762 63.1598 6.63514 64.0707 7.75707 64.074Z" fill="#034737" stroke="#034737" mask="url(#path-1-inside-1_430_2210)"/>
</svg>
