<svg width="78" height="76" viewBox="0 0 78 76" fill="none" xmlns="http://www.w3.org/2000/svg">
<mask id="path-1-inside-1_430_2217" fill="white">
<path d="M64.8381 13.0721C64.3627 12.5993 64.3627 11.8276 64.8381 11.3482L68.7536 7.45383C69.229 6.98098 70.0049 6.98098 70.4869 7.45383C70.9623 7.92667 70.9623 8.69835 70.4869 9.17775L66.5714 13.0721C66.3304 13.3118 66.0201 13.4333 65.7098 13.4333C65.3895 13.4235 65.0791 13.302 64.8381 13.0721ZM68.3475 19.1107C68.4928 19.6525 68.9847 20.0104 69.5294 20.0104C69.6318 20.0104 69.744 19.994 69.8497 19.9677L75.198 18.5426C75.855 18.3719 76.2413 17.702 76.0597 17.0486C75.888 16.3952 75.2145 16.011 74.5575 16.1916L69.2092 17.6167C68.5654 17.7973 68.1758 18.4573 68.3475 19.1107ZM75.1882 26.65L69.8399 25.2249C69.1829 25.0541 68.5193 25.4383 68.3377 26.0819C68.1661 26.7353 68.5523 27.3953 69.1994 27.5759L74.5477 29.001C74.6501 29.0273 74.7623 29.0437 74.868 29.0437C75.4127 29.0437 75.9014 28.6825 76.0499 28.144C76.2314 27.4905 75.8452 26.8305 75.1882 26.65ZM76.6804 74.6866C75.8022 75.56 74.6468 76 73.488 76C72.3324 76 71.1769 75.5633 70.2955 74.6866L59.5364 63.9881C58.9686 63.4233 58.9488 62.5138 59.4836 61.9293L58.0013 60.455C55.2941 62.3069 52.0256 63.3873 48.4965 63.3873C39.2257 63.3873 31.6792 55.8809 31.6792 46.6608C31.6792 45.633 31.7749 44.6184 31.9565 43.6398L27.4368 43.4428L26.7633 43.6234L30.626 57.9659C31.0585 59.5782 30.0912 61.2429 28.48 61.6698L24.8319 62.6384C24.5744 62.7074 24.307 62.7402 24.0462 62.7402C22.6991 62.7402 21.4677 61.8471 21.1045 60.5007L17.2418 46.1583L17.1626 46.1747C16.7301 46.2863 16.3009 46.3454 15.8685 46.3454C15.0068 46.3454 14.1451 46.1221 13.3759 45.6756C12.5208 45.1863 11.8506 44.4738 11.4181 43.6266C10.6423 43.8335 9.8565 43.9353 9.08072 43.9353C7.50261 43.9353 5.95096 43.5248 4.54451 42.717C2.44146 41.5087 0.929447 39.5615 0.308752 37.2433C-0.311926 34.9283 0.00831843 32.4919 1.22323 30.3969C2.43817 28.3052 4.38933 26.8112 6.71685 26.184C6.66403 25.2318 6.88852 24.2796 7.38045 23.4291C8.04404 22.2798 9.12362 21.4556 10.4079 21.1142L20.6784 18.3789L40.6388 5.72017C40.6058 4.699 40.8534 3.67775 41.3817 2.76165C42.1245 1.48434 43.323 0.564887 44.7459 0.187285C46.1688 -0.190316 47.6709 0.00668891 48.9553 0.7455C50.2395 1.48432 51.164 2.67629 51.5436 4.09154L53.9999 13.2164C54.2574 13.1999 54.5182 13.1835 54.7856 13.1835C60.0712 13.1835 64.3766 17.4654 64.3766 22.7227C64.3766 26.4529 62.2109 29.7891 58.883 31.3524L59.6324 34.1402C63.1155 37.2038 65.3143 41.6795 65.3143 46.6636C65.3143 50.1706 64.2281 53.4213 62.3661 56.1171L63.8484 57.5914C64.1257 57.3419 64.479 57.204 64.8586 57.204C65.2647 57.204 65.6345 57.3583 65.9184 57.6407L76.6715 68.3358C78.4412 70.0859 78.4412 72.9362 76.6814 74.6863L76.6804 74.6866ZM54.6468 15.6203L58.2355 28.9482C60.4871 27.7135 61.9265 25.3527 61.9265 22.7225C61.9265 18.8018 58.7175 15.6102 54.7756 15.6102C54.7327 15.62 54.6897 15.6203 54.6468 15.6203ZM43.1845 6.31144L49.5564 29.9704C52.0589 30.1247 54.4194 30.8274 56.506 31.9603L49.1767 4.71613C48.9621 3.92806 48.4537 3.25818 47.7274 2.84771C47.011 2.43726 46.1758 2.32562 45.3801 2.53905C44.5878 2.75249 43.9143 3.25816 43.5016 3.98052C43.0889 4.69307 42.9766 5.52337 43.1845 6.31144ZM10.6885 41.3018L7.25497 28.5649C5.59767 29.0377 4.21759 30.1081 3.34935 31.6088C2.46124 33.1455 2.22028 34.9187 2.67584 36.6098C3.13144 38.3008 4.2275 39.7226 5.77264 40.6059C7.28145 41.4728 9.0246 41.7221 10.6885 41.3018ZM16.5354 43.8302L25.8061 41.3609L20.3224 20.9988L11.0517 23.4681C10.3947 23.6388 9.84332 24.0591 9.5066 24.6502C9.16325 25.2412 9.07411 25.9209 9.24908 26.5711L13.4155 42.0366C13.5872 42.6901 14.0098 43.2385 14.604 43.5734C15.1983 43.9149 15.8882 44.0042 16.5354 43.8302ZM24.4094 44.2505L19.6057 45.5278L23.4783 59.8702C23.5642 60.1887 23.891 60.3759 24.2112 60.2905L27.8594 59.3219C28.1796 59.2365 28.3678 58.9115 28.2819 58.5929L24.4094 44.2505ZM32.6036 41.2328C34.7264 35.1088 40.3224 30.5874 47.0408 30.0065L41.184 8.26249L22.6071 20.0537L28.2658 41.0429L32.6036 41.2328ZM48.5063 60.951C56.4331 60.951 62.8743 54.5446 62.8743 46.6607C62.8743 38.7767 56.4331 32.3703 48.5063 32.3703C40.5795 32.3703 34.1384 38.7865 34.1384 46.6607C34.1384 54.5348 40.5795 60.951 48.5063 60.951ZM59.9331 58.9283L61.2272 60.2155L62.1318 59.3158L60.8377 58.0286C60.5438 58.3373 60.2434 58.6361 59.9331 58.9283ZM61.9338 62.9343L63.2015 64.1953L66.1266 61.286L64.8588 60.0251L61.9338 62.9343ZM74.9477 70.0533L67.8595 63.0034L64.9345 65.9126L72.0227 72.9625C72.8348 73.7703 74.1455 73.7703 74.9477 72.9625C75.75 72.1646 75.75 70.861 74.9477 70.0533ZM61.2171 46.6608C61.2171 53.6353 55.5154 59.3027 48.5065 59.3027C41.4942 59.306 35.7926 53.6352 35.7926 46.6608C35.7926 39.6864 41.4942 34.0189 48.5031 34.0189C55.5154 34.0189 61.2171 39.6897 61.2171 46.6608ZM58.7773 46.6608C58.7773 41.0327 54.1718 36.4457 48.5068 36.4457C42.8481 36.4457 38.2362 41.0264 38.2362 46.6608C38.2362 52.2955 42.8417 56.8759 48.5068 56.8759C54.1622 56.8792 58.7773 52.2985 58.7773 46.6608ZM55.9645 45.5214L49.1007 52.417C48.4636 53.0507 47.6184 53.3791 46.7732 53.3791C45.9446 53.3791 45.1159 53.0704 44.4886 52.4596L41.0915 49.1661C40.4609 48.5586 40.1076 47.741 40.101 46.8774C40.0911 46.0039 40.4213 45.1798 41.0321 44.5624C41.6428 43.9352 42.4649 43.5839 43.3332 43.5773C44.2114 43.5609 45.04 43.8958 45.6607 44.5033L46.7304 45.541L51.3095 40.9438C51.9302 40.3265 52.7489 39.9818 53.6305 39.9818H53.6404C54.5119 39.9818 55.3307 40.3167 55.9514 40.934C57.2323 42.1753 57.2421 44.2441 55.9645 45.5214ZM54.2246 42.6318C54.0694 42.4775 53.8614 42.3921 53.637 42.3921C53.4125 42.3921 53.2045 42.4775 53.0493 42.6318L47.6151 48.0859C47.1397 48.5588 46.3737 48.5653 45.8917 48.1023L43.9504 46.2241C43.7953 46.0697 43.5873 45.9909 43.3727 45.9909H43.3628C43.1383 45.9909 42.9303 46.0862 42.7751 46.2405C42.4549 46.5656 42.4648 47.0909 42.7916 47.416L46.1888 50.7095C46.5156 51.028 47.0438 51.0182 47.3608 50.6997L54.2245 43.8041C54.5514 43.479 54.5515 42.9569 54.2246 42.6318Z"/>
</mask>
<path d="M64.8381 13.0721C64.3627 12.5993 64.3627 11.8276 64.8381 11.3482L68.7536 7.45383C69.229 6.98098 70.0049 6.98098 70.4869 7.45383C70.9623 7.92667 70.9623 8.69835 70.4869 9.17775L66.5714 13.0721C66.3304 13.3118 66.0201 13.4333 65.7098 13.4333C65.3895 13.4235 65.0791 13.302 64.8381 13.0721ZM68.3475 19.1107C68.4928 19.6525 68.9847 20.0104 69.5294 20.0104C69.6318 20.0104 69.744 19.994 69.8497 19.9677L75.198 18.5426C75.855 18.3719 76.2413 17.702 76.0597 17.0486C75.888 16.3952 75.2145 16.011 74.5575 16.1916L69.2092 17.6167C68.5654 17.7973 68.1758 18.4573 68.3475 19.1107ZM75.1882 26.65L69.8399 25.2249C69.1829 25.0541 68.5193 25.4383 68.3377 26.0819C68.1661 26.7353 68.5523 27.3953 69.1994 27.5759L74.5477 29.001C74.6501 29.0273 74.7623 29.0437 74.868 29.0437C75.4127 29.0437 75.9014 28.6825 76.0499 28.144C76.2314 27.4905 75.8452 26.8305 75.1882 26.65ZM76.6804 74.6866C75.8022 75.56 74.6468 76 73.488 76C72.3324 76 71.1769 75.5633 70.2955 74.6866L59.5364 63.9881C58.9686 63.4233 58.9488 62.5138 59.4836 61.9293L58.0013 60.455C55.2941 62.3069 52.0256 63.3873 48.4965 63.3873C39.2257 63.3873 31.6792 55.8809 31.6792 46.6608C31.6792 45.633 31.7749 44.6184 31.9565 43.6398L27.4368 43.4428L26.7633 43.6234L30.626 57.9659C31.0585 59.5782 30.0912 61.2429 28.48 61.6698L24.8319 62.6384C24.5744 62.7074 24.307 62.7402 24.0462 62.7402C22.6991 62.7402 21.4677 61.8471 21.1045 60.5007L17.2418 46.1583L17.1626 46.1747C16.7301 46.2863 16.3009 46.3454 15.8685 46.3454C15.0068 46.3454 14.1451 46.1221 13.3759 45.6756C12.5208 45.1863 11.8506 44.4738 11.4181 43.6266C10.6423 43.8335 9.8565 43.9353 9.08072 43.9353C7.50261 43.9353 5.95096 43.5248 4.54451 42.717C2.44146 41.5087 0.929447 39.5615 0.308752 37.2433C-0.311926 34.9283 0.00831843 32.4919 1.22323 30.3969C2.43817 28.3052 4.38933 26.8112 6.71685 26.184C6.66403 25.2318 6.88852 24.2796 7.38045 23.4291C8.04404 22.2798 9.12362 21.4556 10.4079 21.1142L20.6784 18.3789L40.6388 5.72017C40.6058 4.699 40.8534 3.67775 41.3817 2.76165C42.1245 1.48434 43.323 0.564887 44.7459 0.187285C46.1688 -0.190316 47.6709 0.00668891 48.9553 0.7455C50.2395 1.48432 51.164 2.67629 51.5436 4.09154L53.9999 13.2164C54.2574 13.1999 54.5182 13.1835 54.7856 13.1835C60.0712 13.1835 64.3766 17.4654 64.3766 22.7227C64.3766 26.4529 62.2109 29.7891 58.883 31.3524L59.6324 34.1402C63.1155 37.2038 65.3143 41.6795 65.3143 46.6636C65.3143 50.1706 64.2281 53.4213 62.3661 56.1171L63.8484 57.5914C64.1257 57.3419 64.479 57.204 64.8586 57.204C65.2647 57.204 65.6345 57.3583 65.9184 57.6407L76.6715 68.3358C78.4412 70.0859 78.4412 72.9362 76.6814 74.6863L76.6804 74.6866ZM54.6468 15.6203L58.2355 28.9482C60.4871 27.7135 61.9265 25.3527 61.9265 22.7225C61.9265 18.8018 58.7175 15.6102 54.7756 15.6102C54.7327 15.62 54.6897 15.6203 54.6468 15.6203ZM43.1845 6.31144L49.5564 29.9704C52.0589 30.1247 54.4194 30.8274 56.506 31.9603L49.1767 4.71613C48.9621 3.92806 48.4537 3.25818 47.7274 2.84771C47.011 2.43726 46.1758 2.32562 45.3801 2.53905C44.5878 2.75249 43.9143 3.25816 43.5016 3.98052C43.0889 4.69307 42.9766 5.52337 43.1845 6.31144ZM10.6885 41.3018L7.25497 28.5649C5.59767 29.0377 4.21759 30.1081 3.34935 31.6088C2.46124 33.1455 2.22028 34.9187 2.67584 36.6098C3.13144 38.3008 4.2275 39.7226 5.77264 40.6059C7.28145 41.4728 9.0246 41.7221 10.6885 41.3018ZM16.5354 43.8302L25.8061 41.3609L20.3224 20.9988L11.0517 23.4681C10.3947 23.6388 9.84332 24.0591 9.5066 24.6502C9.16325 25.2412 9.07411 25.9209 9.24908 26.5711L13.4155 42.0366C13.5872 42.6901 14.0098 43.2385 14.604 43.5734C15.1983 43.9149 15.8882 44.0042 16.5354 43.8302ZM24.4094 44.2505L19.6057 45.5278L23.4783 59.8702C23.5642 60.1887 23.891 60.3759 24.2112 60.2905L27.8594 59.3219C28.1796 59.2365 28.3678 58.9115 28.2819 58.5929L24.4094 44.2505ZM32.6036 41.2328C34.7264 35.1088 40.3224 30.5874 47.0408 30.0065L41.184 8.26249L22.6071 20.0537L28.2658 41.0429L32.6036 41.2328ZM48.5063 60.951C56.4331 60.951 62.8743 54.5446 62.8743 46.6607C62.8743 38.7767 56.4331 32.3703 48.5063 32.3703C40.5795 32.3703 34.1384 38.7865 34.1384 46.6607C34.1384 54.5348 40.5795 60.951 48.5063 60.951ZM59.9331 58.9283L61.2272 60.2155L62.1318 59.3158L60.8377 58.0286C60.5438 58.3373 60.2434 58.6361 59.9331 58.9283ZM61.9338 62.9343L63.2015 64.1953L66.1266 61.286L64.8588 60.0251L61.9338 62.9343ZM74.9477 70.0533L67.8595 63.0034L64.9345 65.9126L72.0227 72.9625C72.8348 73.7703 74.1455 73.7703 74.9477 72.9625C75.75 72.1646 75.75 70.861 74.9477 70.0533ZM61.2171 46.6608C61.2171 53.6353 55.5154 59.3027 48.5065 59.3027C41.4942 59.306 35.7926 53.6352 35.7926 46.6608C35.7926 39.6864 41.4942 34.0189 48.5031 34.0189C55.5154 34.0189 61.2171 39.6897 61.2171 46.6608ZM58.7773 46.6608C58.7773 41.0327 54.1718 36.4457 48.5068 36.4457C42.8481 36.4457 38.2362 41.0264 38.2362 46.6608C38.2362 52.2955 42.8417 56.8759 48.5068 56.8759C54.1622 56.8792 58.7773 52.2985 58.7773 46.6608ZM55.9645 45.5214L49.1007 52.417C48.4636 53.0507 47.6184 53.3791 46.7732 53.3791C45.9446 53.3791 45.1159 53.0704 44.4886 52.4596L41.0915 49.1661C40.4609 48.5586 40.1076 47.741 40.101 46.8774C40.0911 46.0039 40.4213 45.1798 41.0321 44.5624C41.6428 43.9352 42.4649 43.5839 43.3332 43.5773C44.2114 43.5609 45.04 43.8958 45.6607 44.5033L46.7304 45.541L51.3095 40.9438C51.9302 40.3265 52.7489 39.9818 53.6305 39.9818H53.6404C54.5119 39.9818 55.3307 40.3167 55.9514 40.934C57.2323 42.1753 57.2421 44.2441 55.9645 45.5214ZM54.2246 42.6318C54.0694 42.4775 53.8614 42.3921 53.637 42.3921C53.4125 42.3921 53.2045 42.4775 53.0493 42.6318L47.6151 48.0859C47.1397 48.5588 46.3737 48.5653 45.8917 48.1023L43.9504 46.2241C43.7953 46.0697 43.5873 45.9909 43.3727 45.9909H43.3628C43.1383 45.9909 42.9303 46.0862 42.7751 46.2405C42.4549 46.5656 42.4648 47.0909 42.7916 47.416L46.1888 50.7095C46.5156 51.028 47.0438 51.0182 47.3608 50.6997L54.2245 43.8041C54.5514 43.479 54.5515 42.9569 54.2246 42.6318Z" fill="#034737" stroke="#034737" stroke-width="2" mask="url(#path-1-inside-1_430_2217)"/>
</svg>
