<svg width="76" height="76" viewBox="0 0 76 76" fill="none" xmlns="http://www.w3.org/2000/svg">
<path d="M68.3261 50.6401L68.7835 50.5469V50.9381C72.2993 50.9381 75.1612 53.8001 75.1612 57.3158C75.1612 60.8315 72.2993 63.6934 68.7835 63.6934H68.2835V64.1934V65.8733C68.2835 68.4668 66.1732 70.5743 63.5826 70.5743C62.3284 70.5743 61.1499 70.0883 60.2605 69.199C57.6739 66.6093 54.2955 65.1108 50.6769 64.8874L50.2549 64.8613L50.1591 65.2731C49.5262 67.9921 48.5755 70.6376 47.3197 73.1428L46.9567 73.8668H47.7667H48.7405H48.9808L49.1309 73.6792L53.371 68.3782L53.3712 68.3779C53.5944 68.0985 54.0018 68.0539 54.2807 68.276C54.5621 68.5008 54.6059 68.9077 54.3836 69.1842L54.3828 69.1852L49.7977 74.9182C49.673 75.0741 49.4876 75.1626 49.2918 75.1626H45.8513C45.6239 75.1626 45.4116 75.0419 45.2945 74.8418C45.1788 74.6386 45.179 74.3932 45.2921 74.1957L45.2924 74.1951C46.8705 71.4318 48.0352 68.4638 48.7906 65.3963L48.9253 64.8496L48.3666 64.7805C44.6535 64.3209 41.7695 61.151 41.7695 57.3189C41.7695 53.168 45.1472 49.7933 49.2951 49.7933H49.7465C53.7188 49.7933 57.4541 48.2478 60.263 45.439L59.9094 45.0854L60.263 45.439C61.1495 44.5525 62.3281 44.0635 63.5852 44.0635C66.1786 44.0635 68.2862 46.1739 68.2862 48.7645V49.9381H68.0275L68.3234 50.6338L68.3261 50.6401ZM66.9937 65.8794V64.8601L66.9899 64.8631V48.7676C66.9899 46.8889 65.4601 45.3592 63.5815 45.3592C62.672 45.3592 61.8128 45.7148 61.1707 46.3569L61.1707 46.3569C58.1178 49.4102 54.0596 51.0922 49.7427 51.0922H49.2913C45.8552 51.0922 43.0583 53.8891 43.0583 57.3252C43.0583 60.5763 45.5645 63.2174 48.7335 63.5045L49.1925 63.5461L49.2712 63.092C49.6045 61.1709 49.7913 59.2205 49.7913 57.2542V55.0326C49.7913 54.6744 50.0824 54.3847 50.4391 54.3847C50.7973 54.3847 51.087 54.6758 51.087 55.0326V57.2542C51.087 59.1954 50.9186 61.1315 50.6005 63.0404L50.5109 63.5779L51.0541 63.621C54.8768 63.9245 58.4314 65.547 61.1746 68.2902L61.1756 68.2912C61.8199 68.9316 62.675 69.2878 63.5853 69.2878C65.464 69.2878 66.9937 67.7581 66.9937 65.8794ZM68.2862 61.9102V62.4102H68.7862C71.5902 62.4102 73.8713 60.1295 73.8713 57.3254C73.8713 54.5213 71.5903 52.2403 68.7862 52.2403H68.2862V52.7403V61.9102Z" fill="#034737" stroke="#034737"/>
<path d="M43.0671 49.3008V49.3179L43.0672 49.3191C43.0594 49.6705 42.7713 49.9523 42.4195 49.9523H37.8344C37.4762 49.9523 37.1865 49.6612 37.1865 49.3044V30.9605V30.4605H36.6865H29.8089H29.3089V30.9605V60.7666C29.3089 61.1247 29.0178 61.4145 28.661 61.4145H19.4911C19.133 61.4145 18.8433 61.1233 18.8433 60.7666V42.4227V41.9227H18.3433H11.4656H10.9656V42.4227V72.2288C10.9656 72.5869 10.6745 72.8766 10.3178 72.8766H1.14787C0.789728 72.8766 0.5 72.5855 0.5 72.2288V35.5418C0.5 35.1837 0.791016 34.894 1.14769 34.8939C1.14775 34.8939 1.14781 34.8939 1.14787 34.8939L10.3176 34.8971H10.3178C10.6759 34.8971 10.9656 35.1882 10.9656 35.545V40.1301V40.6301H11.4656H18.3433H18.8433V40.1301V24.0793C18.8433 23.7211 19.1344 23.4314 19.4911 23.4314H28.661C29.0191 23.4314 29.3089 23.7225 29.3089 24.0793V28.6644V29.1644H29.8089H36.6865H37.1865V28.6644V12.6136C37.1865 12.2554 37.4776 11.9657 37.8344 11.9657H47.0043C47.3624 11.9657 47.6521 12.2568 47.6521 12.6136V17.1987V17.6987H48.1521H55.0298H55.5298V17.1987V1.14787C55.5298 0.78973 55.8209 0.5 56.1776 0.5H65.3475C65.7057 0.5 65.9954 0.791116 65.9954 1.14787L65.9986 37.8349C65.9986 38.193 65.7075 38.4827 65.3507 38.4827H56.1808C55.8227 38.4827 55.533 38.1916 55.533 37.8349V19.4909V18.9909H55.033H48.1554H47.6554V19.4909V47.0048C47.6554 47.3629 47.3642 47.6526 47.0075 47.6526C46.6493 47.6526 46.3596 47.3615 46.3596 47.0048V13.7582V13.2582H45.8596H38.982H38.482L38.482 13.7582L38.4788 48.1529L38.4787 48.653H38.9788H42.4192C42.7774 48.653 43.0671 48.9441 43.0671 49.3008ZM57.3224 1.79573H56.8224V2.29573V36.6905V37.1905H57.3224H64.2H64.7V36.6905V2.29573V1.79573H64.2H57.3224ZM9.17237 71.5819H9.67237V71.0819V36.6872V36.1872H9.17237H2.29474H1.79474V36.6872V71.0819V71.5819H2.29474H9.17237ZM27.5163 60.1189H28.0163V59.6189V25.2242V24.7242H27.5163H20.6387H20.1387V25.2242V59.6189V60.1189H20.6387H27.5163Z" fill="#034737" stroke="#034737"/>
</svg>
