<svg width="78" height="77" viewBox="0 0 78 77" fill="none" xmlns="http://www.w3.org/2000/svg">
<path d="M0.75 38.5C0.75 17.4031 17.9031 0.25 39 0.25C60.0969 0.25 77.25 17.4031 77.25 38.5C77.25 59.5969 60.0969 76.75 39 76.75C17.9031 76.75 0.75 59.5969 0.75 38.5ZM4.05866 38.5C4.05866 57.7681 19.7319 73.4413 39 73.4413C58.2681 73.4413 73.9413 57.7681 73.9413 38.5C73.9413 19.2319 58.2681 3.55866 39 3.55866C19.7319 3.55866 4.05866 19.2319 4.05866 38.5Z" fill="#034737" stroke="#034737" stroke-width="0.5"/>
<path d="M32.7915 57.0012L32.7798 56.9952L32.7676 56.9905C31.8329 56.6312 31.4205 55.7114 31.6992 54.8717C31.6993 54.8715 31.6993 54.8713 31.6994 54.8711L43.1273 21.076C43.4879 20.1444 44.4062 19.7339 45.2446 20.0123C46.0873 20.2952 46.5726 21.2809 46.2264 22.114L46.2231 22.1218L46.2204 22.1298L34.7904 55.928L34.7902 55.9279L34.7878 55.9361C34.5782 56.6327 33.9537 57.0562 33.2447 57.0562C33.1625 57.0562 33.0734 57.056 32.9866 57.0472C32.8969 57.0381 32.8316 57.0216 32.7915 57.0012Z" fill="#034737" stroke="#034737" stroke-width="0.5"/>
<path d="M28.9028 29.1518L28.903 29.1521C29.3924 29.9205 29.1918 30.9103 28.4033 31.4883L18.2758 38.2926L17.9658 38.5009L18.2765 38.7081L28.4819 45.5137C29.1791 46.0029 29.3946 46.984 28.9008 47.7643C28.6238 48.1811 28.1358 48.4608 27.5719 48.4608C27.2794 48.4608 26.9337 48.3888 26.6682 48.1884L26.6684 48.1881L26.6575 48.1807L14.177 39.7528L14.1136 39.71H14.1001C14.0872 39.6992 14.0714 39.6872 14.0534 39.6764C14.0374 39.6668 14.0205 39.6584 14.0029 39.6514L13.9701 39.6186L13.9701 39.6186L13.9666 39.6152C13.9492 39.5985 13.9245 39.5641 13.8794 39.4964C13.8772 39.4931 13.8748 39.4896 13.8724 39.486C13.8405 39.4379 13.7948 39.3692 13.743 39.3132C13.4118 38.8382 13.4033 38.2181 13.691 37.6399L13.7121 37.5974C13.7242 37.5836 13.7382 37.5657 13.7508 37.5448C13.7604 37.5288 13.7688 37.512 13.7758 37.4943L13.8877 37.3823L13.7118 37.2064L13.8877 37.3823L13.9701 37.3L14.1965 37.0736L26.6598 28.738L26.6684 28.7322L26.6766 28.7257C27.3621 28.1795 28.4096 28.3747 28.9028 29.1518Z" fill="#034737" stroke="#034737" stroke-width="0.5"/>
<path d="M64.5765 38.7873C64.5627 38.8282 64.5439 38.8837 64.533 38.9526C64.5164 38.9715 64.4962 38.9974 64.4794 39.0303C64.4739 39.041 64.4693 39.0518 64.4653 39.0625C64.4328 39.0927 64.4108 39.1259 64.3962 39.1551C64.3896 39.1683 64.3843 39.1811 64.3799 39.1933C64.345 39.2404 64.3236 39.2836 64.3093 39.3122C64.3083 39.3143 64.3073 39.3162 64.3064 39.3182C64.2872 39.3564 64.2816 39.3648 64.2713 39.3751L64.2708 39.3756L64.2703 39.376L64.2698 39.3765L64.2693 39.377L64.2689 39.3775L64.2684 39.378L64.2679 39.3785L64.2674 39.3789L64.2669 39.3794L64.2664 39.3799L64.266 39.3804L64.2655 39.3809L64.265 39.3813L64.2645 39.3818L64.264 39.3823L64.2636 39.3828L64.2631 39.3833L64.2626 39.3837L64.2621 39.3842L64.2616 39.3847L64.2612 39.3852L64.2607 39.3857L64.2602 39.3862L64.2597 39.3866L64.2592 39.3871L64.2588 39.3876L64.2583 39.3881L64.2578 39.3886L64.2573 39.389L64.2568 39.3895L64.2563 39.39L64.2559 39.3905L64.2554 39.391L64.2549 39.3914L64.2544 39.3919L64.2539 39.3924L64.2535 39.3929L64.253 39.3934L64.2525 39.3938L64.252 39.3943L64.2515 39.3948L64.2511 39.3953L64.2506 39.3958L64.2501 39.3962L64.2496 39.3967L64.2492 39.3972L64.2487 39.3977L64.2482 39.3982L64.2477 39.3986L64.2472 39.3991L64.2468 39.3996L64.2463 39.4001L64.2458 39.4005L64.2453 39.401L64.2448 39.4015L64.2444 39.402L64.2439 39.4025L64.2434 39.4029L64.2429 39.4034L64.2424 39.4039L64.242 39.4044L64.2415 39.4049L64.241 39.4053L64.2405 39.4058L64.2401 39.4063L64.2396 39.4068L64.2391 39.4072L64.2386 39.4077L64.2381 39.4082L64.2377 39.4087L64.2372 39.4092L64.2367 39.4096L64.2362 39.4101L64.2358 39.4106L64.2353 39.4111L64.2348 39.4115L64.2343 39.412L64.2338 39.4125L64.2334 39.413L64.2329 39.4135L64.2324 39.4139L64.2319 39.4144L64.2315 39.4149L64.231 39.4154L64.2305 39.4158L64.23 39.4163L64.2295 39.4168L64.2291 39.4173L64.2286 39.4178L64.2281 39.4182L64.2276 39.4187L64.2272 39.4192L64.2267 39.4197L64.2262 39.4201L64.2257 39.4206L64.2253 39.4211L64.2248 39.4216L64.2243 39.422L64.2238 39.4225L64.2233 39.423L64.2229 39.4235L64.2224 39.4239L64.2219 39.4244L64.2214 39.4249L64.221 39.4254L64.2205 39.4259L64.22 39.4263L64.2195 39.4268L64.2191 39.4273L64.2186 39.4278L64.2181 39.4282L64.2176 39.4287L64.2172 39.4292L64.2167 39.4297L64.2162 39.4301L64.2157 39.4306L64.2153 39.4311L64.2148 39.4316L64.2143 39.432L64.2138 39.4325L64.2134 39.433L64.2129 39.4335L64.2124 39.4339L64.2119 39.4344L64.2115 39.4349L64.211 39.4354L64.2105 39.4358L64.21 39.4363L64.2095 39.4368L64.2091 39.4373L64.2086 39.4377L64.2081 39.4382L64.2076 39.4387L64.2072 39.4392L64.2067 39.4396L64.2062 39.4401L64.2057 39.4406L64.2053 39.4411L64.2048 39.4415L64.2043 39.442L64.2038 39.4425L64.2034 39.443L64.2029 39.4434L64.2024 39.4439L64.2019 39.4444L64.2015 39.4449L64.201 39.4453L64.2005 39.4458L64.2 39.4463L64.1996 39.4468L64.1991 39.4472L64.1986 39.4477L64.1981 39.4482L64.1977 39.4487L64.1972 39.4491L64.1967 39.4496L64.1963 39.4501L64.1958 39.4506L64.1953 39.451L64.1948 39.4515L64.1944 39.452L64.1939 39.4525L64.1934 39.4529L64.1929 39.4534L64.1925 39.4539L64.192 39.4544L64.1915 39.4548L64.191 39.4553L64.1906 39.4558L64.1901 39.4563L64.1896 39.4567L64.1891 39.4572L64.1887 39.4577L64.1882 39.4582L64.1877 39.4586L64.1872 39.4591L64.1868 39.4596L64.1863 39.4601L64.1858 39.4605L64.1853 39.461L64.1849 39.4615L64.1844 39.4619L64.1839 39.4624L64.1835 39.4629L64.183 39.4634L64.1825 39.4638L64.182 39.4643L64.1816 39.4648L64.1811 39.4653L64.1806 39.4657L64.1801 39.4662L64.1797 39.4667L64.1792 39.4672L64.1787 39.4676L64.1782 39.4681L64.1778 39.4686L64.1773 39.4691L64.1768 39.4695L64.1763 39.47L64.1759 39.4705L64.1754 39.4709L64.1749 39.4714L64.1745 39.4719L64.174 39.4724L64.1735 39.4728L64.173 39.4733L64.1726 39.4738L64.1721 39.4743L64.1716 39.4747L64.1711 39.4752L64.1707 39.4757L64.1702 39.4762L64.1697 39.4766L64.1692 39.4771L64.1688 39.4776L64.1683 39.478L64.1678 39.4785L64.1674 39.479L64.1669 39.4795L64.1664 39.4799L64.1659 39.4804L64.1655 39.4809L64.165 39.4814L64.1645 39.4818L64.164 39.4823L64.1636 39.4828L64.1631 39.4833L64.1626 39.4837L64.1621 39.4842L64.1617 39.4847L64.1612 39.4851L64.1607 39.4856L64.1603 39.4861L64.1598 39.4866L64.1593 39.487L64.1588 39.4875L64.1584 39.488L64.1579 39.4885L64.1574 39.4889L64.1569 39.4894L64.1565 39.4899L64.156 39.4904L64.1555 39.4908L64.155 39.4913L64.1546 39.4918L64.1541 39.4922L64.1536 39.4927L64.1532 39.4932L64.1527 39.4937L64.1522 39.4941L64.1517 39.4946L64.1513 39.4951L64.1508 39.4956L64.1503 39.496L64.1498 39.4965L64.1494 39.497L64.1489 39.4974L64.1484 39.4979L64.148 39.4984L64.1475 39.4989L64.147 39.4993L64.1465 39.4998L64.1461 39.5003L64.1456 39.5008L64.1451 39.5012L64.1446 39.5017L64.1442 39.5022L64.1437 39.5027L64.1432 39.5031L64.1427 39.5036L64.1423 39.5041L64.1418 39.5045L64.1413 39.505L64.1409 39.5055L64.1404 39.506L64.1399 39.5064L64.1394 39.5069L64.139 39.5074L64.1385 39.5079L64.138 39.5083L64.1375 39.5088L64.1371 39.5093L64.1366 39.5097L64.1361 39.5102L64.1357 39.5107L64.1352 39.5112L64.1347 39.5116L64.1342 39.5121L64.1338 39.5126L64.1333 39.5131L64.1328 39.5135L64.1323 39.514L64.1319 39.5145L64.1314 39.515L64.1309 39.5154L64.1304 39.5159L64.13 39.5164L64.1295 39.5168L64.129 39.5173L64.1286 39.5178L64.1281 39.5183L64.1276 39.5187L64.1271 39.5192L64.1267 39.5197L64.1262 39.5202L64.1257 39.5206L64.1252 39.5211L64.1248 39.5216L64.1243 39.5221L64.1238 39.5225L64.1233 39.523L64.1229 39.5235L64.1224 39.5239L64.1219 39.5244L64.1215 39.5249L64.121 39.5254L64.1205 39.5258L64.12 39.5263L64.1196 39.5268L64.1191 39.5273L64.1186 39.5277L64.1181 39.5282L64.1177 39.5287L64.1172 39.5292L64.1167 39.5296L64.1162 39.5301L64.1158 39.5306L64.1153 39.5311L64.1148 39.5315L64.1143 39.532L64.1139 39.5325L64.1134 39.5329L64.1129 39.5334L64.1125 39.5339L64.112 39.5344L64.1115 39.5348L64.111 39.5353L64.1106 39.5358L64.1101 39.5363L64.1096 39.5367L64.1091 39.5372L64.1087 39.5377L64.1082 39.5382L64.1077 39.5386L64.1072 39.5391L64.1068 39.5396L64.1063 39.5401L64.1058 39.5405L64.1053 39.541L64.1049 39.5415L64.1044 39.542L64.1039 39.5424L64.1034 39.5429L64.103 39.5434L64.1025 39.5439L64.102 39.5443L64.1015 39.5448L64.1011 39.5453L64.1006 39.5458L64.1001 39.5462L64.0996 39.5467L64.0992 39.5472L64.0987 39.5477L64.0982 39.5481L64.0977 39.5486L64.0973 39.5491L64.0968 39.5495L64.0963 39.55L64.0958 39.5505L64.0954 39.551L64.0949 39.5514L64.0944 39.5519L64.0939 39.5524L64.0935 39.5529L64.093 39.5533L64.0925 39.5538L64.092 39.5543L64.0916 39.5548L64.0911 39.5552L64.0906 39.5557L64.0901 39.5562L64.0897 39.5567L64.0892 39.5572L64.0887 39.5576L64.0882 39.5581L64.0878 39.5586L64.0873 39.5591L64.0868 39.5595L64.0863 39.56L64.0859 39.5605L64.0854 39.561L64.0849 39.5614L64.0844 39.5619L64.084 39.5624L64.0835 39.5629L64.083 39.5633L64.0825 39.5638L64.0821 39.5643L64.0816 39.5648L64.0811 39.5652L64.0806 39.5657L64.0802 39.5662L64.0797 39.5667L64.0792 39.5671L64.0787 39.5676L64.0783 39.5681L64.0778 39.5686L64.0773 39.569L64.0768 39.5695L64.0763 39.57L64.0759 39.5705L64.0754 39.571L64.0749 39.5714L64.0744 39.5719L64.074 39.5724L64.0735 39.5729L64.073 39.5733L64.0725 39.5738L64.0721 39.5743L64.0716 39.5748L64.0711 39.5752L64.0706 39.5757L64.0702 39.5762L64.0697 39.5767L64.0692 39.5772L64.0687 39.5776L64.0682 39.5781L64.0678 39.5786L64.0673 39.5791L64.0668 39.5795L64.0663 39.58L64.0659 39.5805L64.0654 39.581L64.0649 39.5814L64.0644 39.5819L64.0639 39.5824L64.0635 39.5829L64.063 39.5834L64.0625 39.5838L64.062 39.5843L64.0616 39.5848L64.0611 39.5853L64.0606 39.5857L64.0601 39.5862L64.0596 39.5867L64.0592 39.5872L64.0587 39.5877L64.0582 39.5881L64.0577 39.5886L64.0573 39.5891L64.0568 39.5896L64.0563 39.5901L64.0558 39.5905L64.0553 39.591L64.0549 39.5915L64.0544 39.592L64.0539 39.5924L64.0534 39.5929L64.0529 39.5934L64.0525 39.5939L64.052 39.5944L64.0515 39.5948L64.051 39.5953L64.0506 39.5958L64.0501 39.5963L64.0496 39.5968L64.0491 39.5972L64.0486 39.5977L64.0482 39.5982L64.0477 39.5987L64.0472 39.5992L64.0467 39.5996L64.0462 39.6001L64.0458 39.6006L64.0453 39.6011L64.0448 39.6016L64.0443 39.602L64.0438 39.6025L64.0434 39.603L64.0429 39.6035L64.0424 39.604L64.0419 39.6044L64.0414 39.6049L64.041 39.6054L64.0405 39.6059L64.04 39.6064L64.0395 39.6068L64.039 39.6073L64.0386 39.6078L64.0381 39.6083L64.0376 39.6088L64.0371 39.6092L64.0366 39.6097L64.0361 39.6102L64.0357 39.6107L64.0352 39.6112L64.0347 39.6116L64.0342 39.6121L64.0337 39.6126L64.0333 39.6131L64.0328 39.6136L64.0323 39.614L64.0318 39.6145L64.0313 39.615L64.0309 39.6155L64.0304 39.616L64.0299 39.6165L64.0294 39.6169L64.0289 39.6174L64.0284 39.6179L64.028 39.6184L64.0275 39.6189L63.9452 39.7012L63.8798 39.7666L51.4192 48.1809L51.4191 48.1808L51.4107 48.187C51.1399 48.3868 50.792 48.4611 50.5048 48.4611C50.0147 48.4611 49.5255 48.253 49.1695 47.7551L49.1697 47.7549L49.1616 47.7448C48.6154 47.0593 48.8106 46.0118 49.5877 45.5186L49.5877 45.5187L49.5931 45.515L59.7247 38.7079L60.0329 38.5008L59.7251 38.2932L49.5159 31.4049C48.8191 30.9164 48.603 29.9366 49.0947 29.1566C49.5877 28.4572 50.6464 28.2524 51.3367 28.7351L51.3367 28.7351L51.3401 28.7374L63.8007 37.1494L63.8176 37.1664C63.8265 37.1878 63.8378 37.2086 63.8517 37.2285C63.8876 37.2796 63.9314 37.3104 63.9533 37.3251C63.9755 37.34 63.9889 37.3482 63.9982 37.3539C64.0121 37.3625 64.0165 37.3653 64.0275 37.3762L64.1007 37.4494H64.1156C64.1337 37.4755 64.1574 37.5061 64.1889 37.5377L64.3657 37.3609L64.189 37.5377L64.2696 37.6183C64.2754 37.6244 64.2809 37.63 64.2861 37.6354C64.2998 37.6496 64.3116 37.6618 64.3235 37.6746C64.3398 37.6921 64.351 37.7053 64.3589 37.7157C64.3591 37.716 64.3593 37.7163 64.3595 37.7165V37.937H64.5055L64.5186 37.9495L64.5241 37.9549V37.9909L64.5514 38.0443C64.5841 38.1084 64.5946 38.1449 64.5997 38.1751C64.6058 38.2115 64.6065 38.2504 64.6065 38.3361V38.4975V38.659C64.6065 38.6945 64.5991 38.7206 64.5784 38.7817L64.5765 38.7873ZM64.0748 37.3867C64.0748 37.3866 64.0752 37.3871 64.076 37.3883C64.0752 37.3873 64.0748 37.3867 64.0748 37.3867Z" fill="#034737" stroke="#034737" stroke-width="0.5"/>
</svg>
