<svg width="86" height="79" viewBox="0 0 86 79" fill="none" xmlns="http://www.w3.org/2000/svg">
<path d="M83.1897 49.8575L83.1906 49.8584C84.1517 50.877 84.6946 52.2079 84.6946 53.6246C84.6946 55.157 84.0499 56.6313 82.9212 57.6604C77.8646 62.2205 69.7232 67.8498 59.4921 69.1287C57.6402 69.3602 55.8486 69.4529 54.1166 69.4529C49.2735 69.4529 44.8279 68.7104 40.7467 68.0224L40.7462 68.0223C37.8154 67.5313 35.1282 67.0879 32.6803 66.9769C30.2276 66.8657 27.9779 67.0854 25.9236 67.9448L25.5104 68.1177L25.637 68.5474C26.1677 70.3489 25.4255 72.3572 23.7271 73.3318L23.7259 73.3325L17.0746 77.1735C17.0738 77.1739 17.073 77.1744 17.0722 77.1749C16.3968 77.5542 15.685 77.7343 14.976 77.7343C13.5393 77.7343 12.1287 76.9806 11.3459 75.6394C11.3457 75.6391 11.3455 75.6388 11.3454 75.6385L1.86283 59.2197C1.86271 59.2195 1.86258 59.2193 1.86246 59.2191C0.718457 57.2232 1.403 54.6535 3.3984 53.495C3.39856 53.4949 3.39872 53.4948 3.39888 53.4947L10.0541 49.6514L10.0549 49.651C11.7119 48.6903 13.7344 49.0071 15.0501 50.2808L15.5222 50.7378L15.8368 50.161C15.9005 50.0443 15.9872 49.9337 16.1016 49.8297C16.378 49.5977 19.4365 47.0958 23.697 45.1539C28.0053 43.1901 33.4405 41.8445 38.4619 43.8544C46.4325 47.049 53.5635 49.0539 58.5253 49.4978L58.5297 49.4981C59.4104 49.5691 60.1466 49.8506 60.7532 50.3052C62.3558 51.5218 62.7614 53.8211 62.4078 55.5891L62.2456 56.3999L63.039 56.1669C65.0395 55.5795 66.9136 54.7769 68.4005 53.6658L68.4015 53.665C71.6457 51.228 74.6033 49.4917 77.1993 48.5144L77.2038 48.5127C79.3122 47.6951 81.6585 48.2262 83.1897 49.8575ZM22.6633 71.4793L22.6652 71.4782C23.6464 70.9058 24.0041 69.6495 23.4233 68.6537L23.4215 68.6508L23.1715 68.2289L23.1394 68.1747L23.1373 68.1726L23.1276 68.1558L13.9401 52.2338L13.9389 52.2317C13.6547 51.7444 13.2188 51.4105 12.6839 51.2665L12.6732 51.2636L12.6624 51.2612C12.4914 51.2232 12.3298 51.2024 12.1476 51.2024C11.811 51.2024 11.4385 51.2803 11.113 51.4745L4.46015 55.3163L4.45827 55.3174C3.97097 55.6017 3.63701 56.0375 3.493 56.5725C3.34778 57.1119 3.43245 57.6683 3.69678 58.136L3.69676 58.136L3.69909 58.14L13.1835 74.562L13.1846 74.5639C13.4688 75.0512 13.9047 75.3851 14.4396 75.5291C14.979 75.6744 15.5354 75.5897 16.0031 75.3254L16.0071 75.3231L22.6633 71.4793ZM22.8195 68.4057H22.8732H22.8195ZM81.4977 56.09L81.6646 55.9398L81.6642 55.8795C82.2569 55.2583 82.5849 54.4548 82.5849 53.5776C82.5849 52.7378 82.2748 51.9093 81.6663 51.2802C80.7243 50.2679 79.2743 49.9639 77.9853 50.454L77.985 50.4541C76.2945 51.0981 73.5194 52.4665 69.7063 55.3343C65.7568 58.2923 59.5044 59.3524 54.0568 59.6408C48.6516 59.9271 44.1606 59.4492 43.7818 59.4089L43.7801 59.4087C43.7798 59.4087 43.7795 59.4087 43.7793 59.4086C43.1974 59.3447 42.7838 58.8284 42.8479 58.2412C42.9122 57.6677 43.4194 57.2452 44.0164 57.3091L44.0164 57.3091C44.4345 57.3574 51.6903 58.0919 58.658 57.0723L58.7348 57.0611L58.8046 57.0271C59.4949 56.6909 60.0717 56.1105 60.2872 55.3731C60.3132 55.3132 60.3228 55.2627 60.3269 55.2379C60.3297 55.2211 60.3316 55.2049 60.3329 55.1903C60.4571 54.5956 60.4414 53.9658 60.3105 53.4119C60.1794 52.8568 59.9155 52.3099 59.4843 51.9782L59.4843 51.9781L59.4794 51.9745C59.0633 51.6624 58.5583 51.5981 58.3451 51.5935C53.2142 51.1434 45.884 49.1021 37.6779 45.8166L37.6774 45.8164C33.1327 44.0019 28.0644 45.4462 24.2017 47.2741C20.3198 49.1111 17.5248 51.3975 17.4476 51.4636L17.4476 51.4636L17.4438 51.4669C17.304 51.5892 17.125 51.648 16.8769 51.6741L16.1113 51.7547L16.4963 52.4214L24.2463 65.8434L24.4707 66.232L24.8812 66.0508C29.5309 63.9979 34.8375 64.8609 41.1118 65.9145C46.4494 66.8198 52.5651 67.8499 59.2416 67.0114C69.471 65.7422 77.5803 59.6141 81.4977 56.09Z" fill="#034737" stroke="#034737"/>
<path d="M47.966 24.3417L47.2589 24.8952L48.1018 25.2047C53.7399 27.2749 57.7742 32.7017 57.7742 39.0474C57.7742 39.6306 57.2949 40.1099 56.7117 40.1099C56.1284 40.1099 55.6492 39.6306 55.6492 39.0474C55.6492 32.0833 49.9722 26.4064 43.0082 26.4064C36.0446 26.4064 30.3672 32.0677 30.3672 39.0474C30.3672 39.6306 29.8879 40.1099 29.3047 40.1099C28.7214 40.1099 28.2422 39.6306 28.2422 39.0474C28.2422 32.7031 32.2763 27.2909 37.9163 25.2043L38.756 24.8936L38.051 24.3417C36.1491 22.8526 34.9147 20.5413 34.9147 17.9542C34.9147 13.4959 38.5502 9.86035 43.0085 9.86035C47.4667 9.86035 51.1023 13.4959 51.1023 17.9542C51.1023 20.5564 49.8682 22.8523 47.966 24.3417ZM48.977 17.9542C48.977 14.6623 46.2999 11.9854 43.0082 11.9854C39.7163 11.9854 37.0394 14.6623 37.0394 17.9542C37.0394 21.246 39.7163 23.923 43.0082 23.923C46.3 23.923 48.977 21.246 48.977 17.9542Z" fill="#034737" stroke="#034737"/>
<path d="M8.63281 37.4845C9.49219 37.4845 10.1953 36.7814 10.1953 35.922C10.1953 34.922 10.2422 33.922 10.3359 32.9376C10.4141 32.0782 9.77343 31.3126 8.91403 31.2345C8.05463 31.1564 7.28903 31.797 7.21093 32.6564C7.11718 33.7345 7.07031 34.8283 7.07031 35.922C7.07031 36.7814 7.77343 37.4845 8.63281 37.4845Z" fill="#034737"/>
<path d="M9.6337 27.5153C9.78995 27.5622 9.93058 27.5778 10.0868 27.5778C10.7587 27.5778 11.3837 27.1403 11.5868 26.4684C12.2118 24.359 13.0712 22.3122 14.118 20.3903C14.5243 19.6247 14.243 18.6872 13.4774 18.2809C12.7118 17.8746 11.7743 18.1559 11.368 18.9215C10.2274 21.0465 9.2899 23.2809 8.6024 25.5934C8.3524 26.4215 8.82115 27.2965 9.6493 27.5465L9.6337 27.5153Z" fill="#034737"/>
<path d="M16.5997 15.4843C17.0528 15.4843 17.4903 15.2968 17.8028 14.9218C18.4278 14.1718 19.1153 13.4218 19.8184 12.7187C26.0215 6.51555 34.2564 3.10925 43.0214 3.10925C59.7404 3.10925 73.5524 15.6873 75.5524 31.8753L72.5993 28.9222C71.9899 28.3128 71.0055 28.3128 70.3962 28.9222C69.7869 29.5315 69.7868 30.516 70.3962 31.1253L76.3024 37.0315C76.443 37.1721 76.6149 37.2815 76.8024 37.3752C76.9899 37.4533 77.193 37.5002 77.4118 37.5002H77.5368C77.5993 37.5002 77.6618 37.4533 77.7399 37.4377C77.8649 37.4065 77.9899 37.3908 78.1149 37.3283C78.193 37.2971 78.2555 37.2346 78.318 37.1877C78.4274 37.1096 78.5211 37.0315 78.5993 36.9377C78.6305 36.9065 78.6618 36.8908 78.6774 36.8596L83.6305 30.1408C84.1461 29.4533 83.9899 28.4689 83.3024 27.9533C82.6149 27.4377 81.6305 27.5939 81.1149 28.2814L78.7087 31.547C76.5368 13.797 61.3807 0 43.0527 0C33.4589 0 24.4277 3.7344 17.6467 10.531C16.8811 11.2966 16.1311 12.1091 15.4436 12.9372C14.8967 13.5935 14.9748 14.5778 15.6467 15.1403C15.9436 15.3903 16.2873 15.4997 16.6467 15.4997L16.5997 15.4843Z" fill="#034737"/>
</svg>
