<svg width="79" height="79" viewBox="0 0 79 79" fill="none" xmlns="http://www.w3.org/2000/svg">
<mask id="path-1-inside-1_430_2235" fill="white">
<path fill-rule="evenodd" clip-rule="evenodd" d="M43.5783 46.3708V39.6396C43.5783 38.9061 44.1724 38.312 44.906 38.312H52.3441C52.6959 38.312 53.0345 38.4514 53.2834 38.7003C53.5324 38.9492 53.6718 39.2878 53.6718 39.6396V59.136C53.6718 59.4878 53.5324 59.8264 53.2834 60.0753C53.0345 60.3243 52.696 60.4637 52.3441 60.4637H48.1786C47.8368 65.5685 45.5399 70.3415 41.7661 73.7938C37.9889 77.2457 33.0304 79.111 27.9152 78.9949C22.8005 78.882 17.9279 76.801 14.3099 73.1831C10.6954 69.5653 8.61099 64.6927 8.49816 59.5777C8.38531 54.4629 10.2473 49.5045 13.6992 45.7301C17.1511 41.953 21.9273 39.6561 27.0292 39.3142V28.9088L24.1217 26.0012C17.8684 26.7513 11.4026 23.336 7.08783 19.0211C2.64019 14.5734 -0.901254 7.75916 0.203944 1.32013C0.286922 0.752556 0.725045 0.304483 1.29257 0.208212C7.73827 -0.910333 14.5691 2.63453 19.0198 7.08883C23.3346 11.4037 26.75 17.8698 25.9998 24.1262L28.3564 26.4827L30.7129 24.1262C29.9628 17.8696 33.3815 11.4036 37.693 7.08883C42.1473 2.63453 48.9744 -0.910333 55.4202 0.208212H55.4235C55.9877 0.304466 56.4259 0.752556 56.5121 1.32013C57.6174 7.75924 54.0759 14.5738 49.6282 19.0211C45.3134 23.336 38.8473 26.7514 32.591 26.0012L29.6834 28.9088V39.3142C35.0837 39.6694 40.1065 42.2219 43.5783 46.3708ZM33.857 55.5748C33.857 53.1817 31.975 51.3362 29.6848 50.8318V49.1257C29.6848 48.3922 29.0907 47.7981 28.3571 47.7981C27.6236 47.7981 27.0295 48.3922 27.0295 49.1257V50.8318C24.7426 51.3363 22.8573 53.1817 22.8573 55.5748C22.8573 58.4227 25.4927 60.4639 28.3571 60.4639C30.8099 60.4639 32.131 62.7707 30.4448 64.2078C28.6758 65.718 25.5126 64.6958 25.5126 62.6977L25.5159 62.6943C25.5159 61.9641 24.9185 61.3667 24.1883 61.3667C23.4548 61.3667 22.8606 61.9641 22.8606 62.6943C22.8606 65.0874 24.7425 66.9329 27.0328 67.4374V69.1434L27.0295 69.1467C27.0295 69.8803 27.6236 70.4744 28.3571 70.4744C29.0907 70.4744 29.6848 69.8803 29.6848 69.1467V67.4407C31.975 66.9329 33.857 65.0908 33.857 62.6944C33.857 59.8465 31.2215 57.8053 28.3571 57.8053C25.9043 57.8053 24.5833 55.4985 26.2694 54.0613C28.0385 52.5511 31.2017 53.5734 31.2017 55.5715V55.5748C31.2017 56.3083 31.7958 56.9025 32.5293 56.9025C33.2628 56.9025 33.857 56.3083 33.857 55.5748ZM48.1786 57.8086H51.0164V40.9675H46.2335V50.4672V50.4638C47.3521 52.764 48.0126 55.2562 48.1786 57.8086ZM40.528 46.9681C36.7442 43.1843 31.4167 41.3754 26.1129 42.0724C20.809 42.7727 16.129 45.896 13.4542 50.5295C10.779 55.163 10.4106 60.7786 12.4584 65.7213C14.5063 70.6635 18.7349 74.3747 23.903 75.758C29.0741 77.1421 34.5904 76.0468 38.8355 72.7874C43.0806 69.5313 45.57 64.4862 45.57 59.1361C45.5733 54.5689 43.7608 50.191 40.528 46.9681ZM15.0006 16.8802C14.745 16.6313 14.6023 16.2927 14.6023 15.9376C14.599 15.5824 14.7384 15.2405 14.9907 14.9916C15.2396 14.7393 15.5815 14.5999 15.9366 14.6032C16.2918 14.6032 16.6303 14.746 16.8793 15.0015L23.4246 21.5469C23.1126 16.827 20.4307 12.2528 17.1448 8.96706C13.4937 5.31598 8.01738 2.25579 2.69999 2.70052C2.25523 8.01446 5.31875 13.4943 8.96649 17.1454C12.2491 20.4281 16.8229 23.1099 21.5462 23.4252L15.0006 16.8802ZM39.8406 15.0016C40.0862 14.746 40.4281 14.6033 40.7832 14.6033C41.1351 14.6 41.4769 14.7394 41.7292 14.9917C41.9781 15.2406 42.1175 15.5825 42.1175 15.9376C42.1142 16.2928 41.9715 16.6313 41.7159 16.8803L35.1706 23.4256C39.8938 23.1136 44.4646 20.4318 47.7504 17.1458C51.3981 13.4981 54.4616 8.01833 54.0169 2.70091C48.703 2.25614 43.2232 5.31637 39.5721 8.96745C36.2894 12.2501 33.6076 16.8239 33.2923 21.5473L39.8376 15.0019L39.8406 15.0016ZM70.2342 32.7459H77.6723C78.0241 32.7459 78.3594 32.8853 78.6083 33.1342C78.8573 33.3832 79 33.7217 79 34.0736V59.1363C79 59.4882 78.8573 59.8267 78.6083 60.0757C78.3594 60.3246 78.0242 60.464 77.6723 60.464H70.2342C69.5006 60.464 68.9065 59.8699 68.9065 59.1364V34.0736C68.9065 33.3401 69.5006 32.7459 70.2342 32.7459ZM76.3447 35.4012H71.5618V57.8087H76.3447V35.4012ZM40.0007 35.4776L48.0529 30.8141L60.8816 34.9829C61.323 35.1257 61.8076 35.0261 62.1594 34.7207L73.1222 25.188L72.9098 27.196C72.8733 27.5446 72.9762 27.8931 73.1985 28.1685C73.4209 28.4407 73.7429 28.6133 74.0914 28.6498C74.4432 28.6863 74.7917 28.5801 75.0639 28.3577C75.336 28.1353 75.5086 27.8134 75.5452 27.4649L76.1028 22.2007V22.1974C76.1691 21.8124 76.0629 21.4141 75.8074 21.1154C75.5551 20.8167 75.18 20.6441 74.7884 20.6474L69.4048 20.3354C69.0497 20.3122 68.7045 20.4316 68.439 20.6673C68.1734 20.8996 68.0141 21.2316 67.9942 21.5834C67.9743 21.9385 68.0971 22.2837 68.3361 22.5459C68.5717 22.8081 68.9036 22.9641 69.2588 22.9807L71.4693 23.1068L60.9841 32.2275L48.3083 28.1117C47.9532 27.9956 47.5615 28.0354 47.2363 28.2246L38.6731 33.1834C38.3677 33.3593 38.142 33.648 38.0491 33.9899C37.9594 34.3318 38.0059 34.6936 38.1818 34.9989C38.3611 35.3043 38.6498 35.5267 38.9917 35.6163C39.3336 35.7059 39.6953 35.6568 40.0007 35.4776ZM57.5724 43.4734C56.8388 43.4734 56.2447 44.0675 56.2447 44.8011V59.1364C56.2447 59.4882 56.3841 59.8267 56.6331 60.0757C56.882 60.3246 57.2205 60.464 57.5724 60.464H65.0105C65.3624 60.464 65.6976 60.3246 65.9466 60.0757C66.1955 59.8268 66.3382 59.4882 66.3382 59.1364V44.8011C66.3382 44.4492 66.1955 44.1107 65.9466 43.8617C65.6976 43.6128 65.3624 43.4734 65.0105 43.4734L57.5724 43.4734ZM63.6829 46.1287V57.8087H58.9V46.1287H63.6829Z"/>
</mask>
<path fill-rule="evenodd" clip-rule="evenodd" d="M43.5783 46.3708V39.6396C43.5783 38.9061 44.1724 38.312 44.906 38.312H52.3441C52.6959 38.312 53.0345 38.4514 53.2834 38.7003C53.5324 38.9492 53.6718 39.2878 53.6718 39.6396V59.136C53.6718 59.4878 53.5324 59.8264 53.2834 60.0753C53.0345 60.3243 52.696 60.4637 52.3441 60.4637H48.1786C47.8368 65.5685 45.5399 70.3415 41.7661 73.7938C37.9889 77.2457 33.0304 79.111 27.9152 78.9949C22.8005 78.882 17.9279 76.801 14.3099 73.1831C10.6954 69.5653 8.61099 64.6927 8.49816 59.5777C8.38531 54.4629 10.2473 49.5045 13.6992 45.7301C17.1511 41.953 21.9273 39.6561 27.0292 39.3142V28.9088L24.1217 26.0012C17.8684 26.7513 11.4026 23.336 7.08783 19.0211C2.64019 14.5734 -0.901254 7.75916 0.203944 1.32013C0.286922 0.752556 0.725045 0.304483 1.29257 0.208212C7.73827 -0.910333 14.5691 2.63453 19.0198 7.08883C23.3346 11.4037 26.75 17.8698 25.9998 24.1262L28.3564 26.4827L30.7129 24.1262C29.9628 17.8696 33.3815 11.4036 37.693 7.08883C42.1473 2.63453 48.9744 -0.910333 55.4202 0.208212H55.4235C55.9877 0.304466 56.4259 0.752556 56.5121 1.32013C57.6174 7.75924 54.0759 14.5738 49.6282 19.0211C45.3134 23.336 38.8473 26.7514 32.591 26.0012L29.6834 28.9088V39.3142C35.0837 39.6694 40.1065 42.2219 43.5783 46.3708ZM33.857 55.5748C33.857 53.1817 31.975 51.3362 29.6848 50.8318V49.1257C29.6848 48.3922 29.0907 47.7981 28.3571 47.7981C27.6236 47.7981 27.0295 48.3922 27.0295 49.1257V50.8318C24.7426 51.3363 22.8573 53.1817 22.8573 55.5748C22.8573 58.4227 25.4927 60.4639 28.3571 60.4639C30.8099 60.4639 32.131 62.7707 30.4448 64.2078C28.6758 65.718 25.5126 64.6958 25.5126 62.6977L25.5159 62.6943C25.5159 61.9641 24.9185 61.3667 24.1883 61.3667C23.4548 61.3667 22.8606 61.9641 22.8606 62.6943C22.8606 65.0874 24.7425 66.9329 27.0328 67.4374V69.1434L27.0295 69.1467C27.0295 69.8803 27.6236 70.4744 28.3571 70.4744C29.0907 70.4744 29.6848 69.8803 29.6848 69.1467V67.4407C31.975 66.9329 33.857 65.0908 33.857 62.6944C33.857 59.8465 31.2215 57.8053 28.3571 57.8053C25.9043 57.8053 24.5833 55.4985 26.2694 54.0613C28.0385 52.5511 31.2017 53.5734 31.2017 55.5715V55.5748C31.2017 56.3083 31.7958 56.9025 32.5293 56.9025C33.2628 56.9025 33.857 56.3083 33.857 55.5748ZM48.1786 57.8086H51.0164V40.9675H46.2335V50.4672V50.4638C47.3521 52.764 48.0126 55.2562 48.1786 57.8086ZM40.528 46.9681C36.7442 43.1843 31.4167 41.3754 26.1129 42.0724C20.809 42.7727 16.129 45.896 13.4542 50.5295C10.779 55.163 10.4106 60.7786 12.4584 65.7213C14.5063 70.6635 18.7349 74.3747 23.903 75.758C29.0741 77.1421 34.5904 76.0468 38.8355 72.7874C43.0806 69.5313 45.57 64.4862 45.57 59.1361C45.5733 54.5689 43.7608 50.191 40.528 46.9681ZM15.0006 16.8802C14.745 16.6313 14.6023 16.2927 14.6023 15.9376C14.599 15.5824 14.7384 15.2405 14.9907 14.9916C15.2396 14.7393 15.5815 14.5999 15.9366 14.6032C16.2918 14.6032 16.6303 14.746 16.8793 15.0015L23.4246 21.5469C23.1126 16.827 20.4307 12.2528 17.1448 8.96706C13.4937 5.31598 8.01738 2.25579 2.69999 2.70052C2.25523 8.01446 5.31875 13.4943 8.96649 17.1454C12.2491 20.4281 16.8229 23.1099 21.5462 23.4252L15.0006 16.8802ZM39.8406 15.0016C40.0862 14.746 40.4281 14.6033 40.7832 14.6033C41.1351 14.6 41.4769 14.7394 41.7292 14.9917C41.9781 15.2406 42.1175 15.5825 42.1175 15.9376C42.1142 16.2928 41.9715 16.6313 41.7159 16.8803L35.1706 23.4256C39.8938 23.1136 44.4646 20.4318 47.7504 17.1458C51.3981 13.4981 54.4616 8.01833 54.0169 2.70091C48.703 2.25614 43.2232 5.31637 39.5721 8.96745C36.2894 12.2501 33.6076 16.8239 33.2923 21.5473L39.8376 15.0019L39.8406 15.0016ZM70.2342 32.7459H77.6723C78.0241 32.7459 78.3594 32.8853 78.6083 33.1342C78.8573 33.3832 79 33.7217 79 34.0736V59.1363C79 59.4882 78.8573 59.8267 78.6083 60.0757C78.3594 60.3246 78.0242 60.464 77.6723 60.464H70.2342C69.5006 60.464 68.9065 59.8699 68.9065 59.1364V34.0736C68.9065 33.3401 69.5006 32.7459 70.2342 32.7459ZM76.3447 35.4012H71.5618V57.8087H76.3447V35.4012ZM40.0007 35.4776L48.0529 30.8141L60.8816 34.9829C61.323 35.1257 61.8076 35.0261 62.1594 34.7207L73.1222 25.188L72.9098 27.196C72.8733 27.5446 72.9762 27.8931 73.1985 28.1685C73.4209 28.4407 73.7429 28.6133 74.0914 28.6498C74.4432 28.6863 74.7917 28.5801 75.0639 28.3577C75.336 28.1353 75.5086 27.8134 75.5452 27.4649L76.1028 22.2007V22.1974C76.1691 21.8124 76.0629 21.4141 75.8074 21.1154C75.5551 20.8167 75.18 20.6441 74.7884 20.6474L69.4048 20.3354C69.0497 20.3122 68.7045 20.4316 68.439 20.6673C68.1734 20.8996 68.0141 21.2316 67.9942 21.5834C67.9743 21.9385 68.0971 22.2837 68.3361 22.5459C68.5717 22.8081 68.9036 22.9641 69.2588 22.9807L71.4693 23.1068L60.9841 32.2275L48.3083 28.1117C47.9532 27.9956 47.5615 28.0354 47.2363 28.2246L38.6731 33.1834C38.3677 33.3593 38.142 33.648 38.0491 33.9899C37.9594 34.3318 38.0059 34.6936 38.1818 34.9989C38.3611 35.3043 38.6498 35.5267 38.9917 35.6163C39.3336 35.7059 39.6953 35.6568 40.0007 35.4776ZM57.5724 43.4734C56.8388 43.4734 56.2447 44.0675 56.2447 44.8011V59.1364C56.2447 59.4882 56.3841 59.8267 56.6331 60.0757C56.882 60.3246 57.2205 60.464 57.5724 60.464H65.0105C65.3624 60.464 65.6976 60.3246 65.9466 60.0757C66.1955 59.8268 66.3382 59.4882 66.3382 59.1364V44.8011C66.3382 44.4492 66.1955 44.1107 65.9466 43.8617C65.6976 43.6128 65.3624 43.4734 65.0105 43.4734L57.5724 43.4734ZM63.6829 46.1287V57.8087H58.9V46.1287H63.6829Z" fill="#034737" stroke="#034737" stroke-width="2" mask="url(#path-1-inside-1_430_2235)"/>
</svg>
